<svg data-v-fde0c5aa="" xmlns="http://www.w3.org/2000/svg" viewBox="0 0 300 300" class="iconLeftSlogan"><!----><defs data-v-fde0c5aa=""><!----></defs><rect data-v-fde0c5aa="" fill="transparent" x="0" y="0" width="300px" height="300px" class="logo-background-square"></rect><defs data-v-fde0c5aa=""><!----></defs><g data-v-fde0c5aa="" id="c17d0745-df50-4516-bd7e-0e45caa3911e" fill="#000000" transform="matrix(1.3303975527888305,0,0,1.3303975527888305,120.46790546283003,127.6605622538155)"><path d="M1.24 12.61L1.24 2.95L8.09 2.95L8.09 4.54L2.98 4.54L2.98 6.98L7.49 6.98L7.49 8.57L2.98 8.57L2.98 12.61L1.24 12.61ZM9.43 12.61L9.43 5.78L11.06 5.78L11.06 6.92L11.06 6.92Q11.27 6.32 11.79 5.98L11.79 5.98L11.79 5.98Q12.30 5.63 12.89 5.63L12.89 5.63L12.89 5.63Q13.24 5.63 13.57 5.76L13.57 5.76L13.57 5.76Q13.90 5.88 14.14 6.13L14.14 6.13L13.38 7.49L13.38 7.49Q13.04 7.26 12.64 7.26L12.64 7.26L12.64 7.26Q12.23 7.26 11.86 7.52L11.86 7.52L11.86 7.52Q11.50 7.79 11.27 8.34L11.27 8.34L11.27 8.34Q11.05 8.89 11.05 9.72L11.05 9.72L11.05 12.61L9.43 12.61ZM16.87 12.74L16.87 12.74Q16.17 12.74 15.60 12.48L15.60 12.48L15.60 12.48Q15.04 12.22 14.71 11.71L14.71 11.71L14.71 11.71Q14.39 11.20 14.39 10.51L14.39 10.51L14.39 10.51Q14.39 9.46 15.12 9.00L15.12 9.00L15.12 9.00Q15.86 8.53 17.11 8.53L17.11 8.53L18.89 8.53L18.89 8.53Q18.89 7.87 18.54 7.48L18.54 7.48L18.54 7.48Q18.19 7.09 17.54 7.09L17.54 7.09L17.54 7.09Q16.99 7.09 16.59 7.36L16.59 7.36L16.59 7.36Q16.18 7.63 15.93 8.05L15.93 8.05L14.66 7.13L14.66 7.13Q15.18 6.41 15.88 6.02L15.88 6.02L15.88 6.02Q16.57 5.63 17.53 5.63L17.53 5.63L17.53 5.63Q18.44 5.63 19.11 5.99L19.11 5.99L19.11 5.99Q19.78 6.34 20.13 6.99L20.13 6.99L20.13 6.99Q20.48 7.63 20.48 8.46L20.48 8.46L20.48 12.61L19.11 12.61L19.00 11.63L19.00 11.63Q18.58 12.24 18.05 12.49L18.05 12.49L18.05 12.49Q17.53 12.74 16.87 12.74L16.87 12.74ZM17.11 11.33L17.11 11.33Q17.58 11.33 17.98 11.11L17.98 11.11L17.98 11.11Q18.38 10.89 18.63 10.52L18.63 10.52L18.63 10.52Q18.87 10.16 18.89 9.73L18.89 9.73L17.21 9.73L17.21 9.73Q16.67 9.73 16.38 9.97L16.38 9.97L16.38 9.97Q16.10 10.21 16.10 10.56L16.10 10.56L16.10 10.56Q16.10 10.91 16.37 11.12L16.37 11.12L16.37 11.12Q16.63 11.33 17.11 11.33L17.11 11.33ZM22.26 12.61L22.26 5.78L23.91 5.78L23.91 6.57L23.91 6.57Q24.30 6.10 24.84 5.87L24.84 5.87L24.84 5.87Q25.38 5.63 25.93 5.63L25.93 5.63L25.93 5.63Q26.78 5.63 27.33 6.04L27.33 6.04L27.33 6.04Q27.89 6.44 28.15 7.09L28.15 7.09L28.15 7.09Q28.40 7.75 28.40 8.50L28.40 8.50L28.40 12.61L26.76 12.61L26.76 8.72L26.76 8.72Q26.76 8.03 26.41 7.60L26.41 7.60L26.41 7.60Q26.07 7.17 25.45 7.17L25.45 7.17L25.45 7.17Q24.72 7.17 24.32 7.59L24.32 7.59L24.32 7.59Q23.91 8.00 23.91 8.87L23.91 8.87L23.91 12.61L22.26 12.61ZM32.90 12.74L32.90 12.74Q31.83 12.74 31.09 12.25L31.09 12.25L31.09 12.25Q30.34 11.76 29.97 10.95L29.97 10.95L29.97 10.95Q29.59 10.14 29.59 9.20L29.59 9.20L29.59 9.20Q29.59 8.27 29.97 7.45L29.97 7.45L29.97 7.45Q30.34 6.64 31.08 6.14L31.08 6.14L31.08 6.14Q31.82 5.63 32.89 5.63L32.89 5.63L32.89 5.63Q33.93 5.63 34.69 6.14L34.69 6.14L34.69 6.14Q35.46 6.65 35.84 7.65L35.84 7.65L34.25 8.26L34.25 8.26Q34.12 7.76 33.75 7.45L33.75 7.45L33.75 7.45Q33.39 7.14 32.89 7.14L32.89 7.14L32.89 7.14Q32.34 7.14 31.98 7.43L31.98 7.43L31.98 7.43Q31.62 7.72 31.46 8.19L31.46 8.19L31.46 8.19Q31.29 8.66 31.29 9.20L31.29 9.20L31.29 9.20Q31.29 9.75 31.45 10.21L31.45 10.21L31.45 10.21Q31.62 10.67 31.98 10.95L31.98 10.95L31.98 10.95Q32.33 11.23 32.89 11.23L32.89 11.23L32.89 11.23Q33.38 11.23 33.75 10.93L33.75 10.93L33.75 10.93Q34.12 10.64 34.25 10.14L34.25 10.14L35.77 10.72L35.77 10.72Q35.43 11.68 34.67 12.21L34.67 12.21L34.67 12.21Q33.91 12.74 32.90 12.74L32.90 12.74ZM37.02 4.48L37.02 2.95L38.75 2.95L38.75 4.48L37.02 4.48ZM37.06 12.61L37.06 5.78L38.71 5.78L38.71 12.61L37.06 12.61ZM42.75 12.74L42.75 12.74Q42.05 12.74 41.46 12.49L41.46 12.49L41.46 12.49Q40.87 12.23 40.47 11.80L40.47 11.80L40.47 11.80Q40.06 11.36 39.89 10.83L39.89 10.83L41.21 10.24L41.21 10.24Q41.39 10.72 41.73 11.04L41.73 11.04L41.73 11.04Q42.06 11.36 42.67 11.36L42.67 11.36L42.67 11.36Q43.03 11.36 43.28 11.24L43.28 11.24L43.28 11.24Q43.53 11.12 43.65 10.93L43.65 10.93L43.65 10.93Q43.78 10.74 43.78 10.55L43.78 10.55L43.78 10.55Q43.78 10.33 43.62 10.19L43.62 10.19L43.62 10.19Q43.46 10.04 43.22 9.96L43.22 9.96L43.22 9.96Q42.98 9.87 42.53 9.75L42.53 9.75L42.53 9.75Q41.85 9.58 41.42 9.39L41.42 9.39L41.42 9.39Q40.98 9.21 40.66 8.81L40.66 8.81L40.66 8.81Q40.35 8.42 40.35 7.76L40.35 7.76L40.35 7.76Q40.35 7.07 40.69 6.59L40.69 6.59L40.69 6.59Q41.04 6.11 41.62 5.87L41.62 5.87L41.62 5.87Q42.20 5.63 42.88 5.63L42.88 5.63L42.88 5.63Q43.75 5.63 44.41 6.02L44.41 6.02L44.41 6.02Q45.08 6.41 45.47 7.12L45.47 7.12L44.18 7.82L44.18 7.82Q43.97 7.44 43.65 7.19L43.65 7.19L43.65 7.19Q43.33 6.95 42.83 6.95L42.83 6.95L42.83 6.95Q42.43 6.95 42.19 7.12L42.19 7.12L42.19 7.12Q41.95 7.29 41.95 7.54L41.95 7.54L41.95 7.54Q41.95 7.73 42.10 7.86L42.10 7.86L42.10 7.86Q42.25 7.99 42.48 8.07L42.48 8.07L42.48 8.07Q42.70 8.16 43.12 8.28L43.12 8.28L43.12 8.28Q43.83 8.48 44.28 8.69L44.28 8.69L44.28 8.69Q44.74 8.89 45.08 9.32L45.08 9.32L45.08 9.32Q45.42 9.75 45.42 10.47L45.42 10.47L45.42 10.47Q45.42 11.22 45.04 11.73L45.04 11.73L45.04 11.73Q44.65 12.24 44.04 12.49L44.04 12.49L44.04 12.49Q43.44 12.74 42.75 12.74L42.75 12.74ZM49.62 12.74L49.62 12.74Q48.55 12.74 47.80 12.25L47.80 12.25L47.80 12.25Q47.05 11.76 46.68 10.95L46.68 10.95L46.68 10.95Q46.31 10.14 46.31 9.20L46.31 9.20L46.31 9.20Q46.31 8.27 46.68 7.45L46.68 7.45L46.68 7.45Q47.05 6.64 47.79 6.14L47.79 6.14L47.79 6.14Q48.54 5.63 49.60 5.63L49.60 5.63L49.60 5.63Q50.64 5.63 51.41 6.14L51.41 6.14L51.41 6.14Q52.17 6.65 52.55 7.65L52.55 7.65L50.97 8.26L50.97 8.26Q50.83 7.76 50.47 7.45L50.47 7.45L50.47 7.45Q50.10 7.14 49.60 7.14L49.60 7.14L49.60 7.14Q49.05 7.14 48.70 7.43L48.70 7.43L48.70 7.43Q48.34 7.72 48.17 8.19L48.17 8.19L48.17 8.19Q48.00 8.66 48.00 9.20L48.00 9.20L48.00 9.20Q48.00 9.75 48.17 10.21L48.17 10.21L48.17 10.21Q48.33 10.67 48.69 10.95L48.69 10.95L48.69 10.95Q49.05 11.23 49.60 11.23L49.60 11.23L49.60 11.23Q50.09 11.23 50.46 10.93L50.46 10.93L50.46 10.93Q50.83 10.64 50.97 10.14L50.97 10.14L52.49 10.72L52.49 10.72Q52.14 11.68 51.39 12.21L51.39 12.21L51.39 12.21Q50.63 12.74 49.62 12.74L49.62 12.74ZM56.63 12.74L56.63 12.74Q55.60 12.74 54.80 12.26L54.80 12.26L54.80 12.26Q54.00 11.78 53.57 10.96L53.57 10.96L53.57 10.96Q53.13 10.14 53.13 9.17L53.13 9.17L53.13 9.17Q53.13 8.21 53.57 7.40L53.57 7.40L53.57 7.40Q54.00 6.59 54.80 6.11L54.80 6.11L54.80 6.11Q55.60 5.63 56.63 5.63L56.63 5.63L56.63 5.63Q57.65 5.63 58.45 6.11L58.45 6.11L58.45 6.11Q59.25 6.59 59.69 7.40L59.69 7.40L59.69 7.40Q60.13 8.21 60.13 9.17L60.13 9.17L60.13 9.17Q60.13 10.14 59.69 10.96L59.69 10.96L59.69 10.96Q59.25 11.78 58.45 12.26L58.45 12.26L58.45 12.26Q57.65 12.74 56.63 12.74L56.63 12.74ZM56.63 11.31L56.63 11.31Q57.23 11.31 57.63 11.02L57.63 11.02L57.63 11.02Q58.02 10.73 58.21 10.24L58.21 10.24L58.21 10.24Q58.39 9.76 58.39 9.17L58.39 9.17L58.39 9.17Q58.39 8.26 57.96 7.67L57.96 7.67L57.96 7.67Q57.52 7.08 56.63 7.08L56.63 7.08L56.63 7.08Q56.03 7.08 55.63 7.36L55.63 7.36L55.63 7.36Q55.23 7.64 55.05 8.11L55.05 8.11L55.05 8.11Q54.87 8.59 54.87 9.17L54.87 9.17L54.87 9.17Q54.87 9.76 55.05 10.24L55.05 10.24L55.05 10.24Q55.23 10.73 55.63 11.02L55.63 11.02L55.63 11.02Q56.03 11.31 56.63 11.31L56.63 11.31ZM63.94 12.61L67.81 2.95L69.10 2.95L72.95 12.61L71.08 12.61L70.33 10.51L66.58 10.51L65.83 12.61L63.94 12.61ZM67.17 9.02L69.75 9.02L68.46 5.50L67.17 9.02ZM74.03 12.61L74.03 5.78L75.65 5.78L75.65 6.92L75.65 6.92Q75.87 6.32 76.38 5.98L76.38 5.98L76.38 5.98Q76.89 5.63 77.49 5.63L77.49 5.63L77.49 5.63Q77.83 5.63 78.17 5.76L78.17 5.76L78.17 5.76Q78.50 5.88 78.74 6.13L78.74 6.13L77.98 7.49L77.98 7.49Q77.63 7.26 77.23 7.26L77.23 7.26L77.23 7.26Q76.82 7.26 76.46 7.52L76.46 7.52L76.46 7.52Q76.09 7.79 75.87 8.34L75.87 8.34L75.87 8.34Q75.64 8.89 75.64 9.72L75.64 9.72L75.64 12.61L74.03 12.61ZM81.46 12.74L81.46 12.74Q80.76 12.74 80.20 12.48L80.20 12.48L80.20 12.48Q79.63 12.22 79.31 11.71L79.31 11.71L79.31 11.71Q78.98 11.20 78.98 10.51L78.98 10.51L78.98 10.51Q78.98 9.46 79.72 9.00L79.72 9.00L79.72 9.00Q80.45 8.53 81.70 8.53L81.70 8.53L83.48 8.53L83.48 8.53Q83.48 7.87 83.13 7.48L83.13 7.48L83.13 7.48Q82.78 7.09 82.13 7.09L82.13 7.09L82.13 7.09Q81.59 7.09 81.18 7.36L81.18 7.36L81.18 7.36Q80.77 7.63 80.53 8.05L80.53 8.05L79.25 7.13L79.25 7.13Q79.78 6.41 80.47 6.02L80.47 6.02L80.47 6.02Q81.16 5.63 82.12 5.63L82.12 5.63L82.12 5.63Q83.04 5.63 83.70 5.99L83.70 5.99L83.70 5.99Q84.37 6.34 84.72 6.99L84.72 6.99L84.72 6.99Q85.07 7.63 85.07 8.46L85.07 8.46L85.07 12.61L83.70 12.61L83.59 11.63L83.59 11.63Q83.17 12.24 82.65 12.49L82.65 12.49L82.65 12.49Q82.12 12.74 81.46 12.74L81.46 12.74ZM81.70 11.33L81.70 11.33Q82.17 11.33 82.57 11.11L82.57 11.11L82.57 11.11Q82.97 10.89 83.22 10.52L83.22 10.52L83.22 10.52Q83.47 10.16 83.48 9.73L83.48 9.73L81.80 9.73L81.80 9.73Q81.26 9.73 80.98 9.97L80.98 9.97L80.98 9.97Q80.69 10.21 80.69 10.56L80.69 10.56L80.69 10.56Q80.69 10.91 80.96 11.12L80.96 11.12L80.96 11.12Q81.22 11.33 81.70 11.33L81.70 11.33ZM89.13 12.74L89.13 12.74Q87.88 12.74 87.26 11.85L87.26 11.85L87.26 11.85Q86.65 10.96 86.65 9.37L86.65 9.37L86.65 5.78L88.33 5.78L88.33 9.43L88.33 9.43Q88.33 10.03 88.44 10.42L88.44 10.42L88.44 10.42Q88.54 10.81 88.81 11.02L88.81 11.02L88.81 11.02Q89.08 11.23 89.57 11.23L89.57 11.23L89.57 11.23Q90.27 11.23 90.71 10.72L90.71 10.72L90.71 10.72Q91.15 10.20 91.15 8.85L91.15 8.85L91.15 5.78L92.85 5.78L92.85 12.61L91.15 12.61L91.15 11.81L91.15 11.81Q90.79 12.28 90.27 12.51L90.27 12.51L90.27 12.51Q89.76 12.74 89.13 12.74L89.13 12.74ZM94.81 4.48L94.81 2.95L96.58 2.95L96.58 4.48L94.81 4.48ZM94.55 15.60L94.55 15.60Q94.25 15.60 93.92 15.53L93.92 15.53L93.92 15.53Q93.58 15.47 93.36 15.38L93.36 15.38L93.78 13.94L93.78 13.94Q94.16 14.09 94.38 14.09L94.38 14.09L94.38 14.09Q94.86 14.09 94.86 13.45L94.86 13.45L94.86 5.78L96.54 5.78L96.54 13.32L96.54 13.32Q96.54 13.97 96.32 14.48L96.32 14.48L96.32 14.48Q96.11 15.00 95.66 15.30L95.66 15.30L95.66 15.30Q95.21 15.60 94.55 15.60L94.55 15.60ZM101.38 12.74L101.38 12.74Q100.36 12.74 99.56 12.26L99.56 12.26L99.56 12.26Q98.76 11.78 98.32 10.96L98.32 10.96L98.32 10.96Q97.88 10.14 97.88 9.17L97.88 9.17L97.88 9.17Q97.88 8.21 98.32 7.40L98.32 7.40L98.32 7.40Q98.76 6.59 99.56 6.11L99.56 6.11L99.56 6.11Q100.36 5.63 101.38 5.63L101.38 5.63L101.38 5.63Q102.41 5.63 103.21 6.11L103.21 6.11L103.21 6.11Q104.01 6.59 104.45 7.40L104.45 7.40L104.45 7.40Q104.88 8.21 104.88 9.17L104.88 9.17L104.88 9.17Q104.88 10.14 104.45 10.96L104.45 10.96L104.45 10.96Q104.01 11.78 103.21 12.26L103.21 12.26L103.21 12.26Q102.41 12.74 101.38 12.74L101.38 12.74ZM101.38 11.31L101.38 11.31Q101.99 11.31 102.38 11.02L102.38 11.02L102.38 11.02Q102.78 10.73 102.96 10.24L102.96 10.24L102.96 10.24Q103.15 9.76 103.15 9.17L103.15 9.17L103.15 9.17Q103.15 8.26 102.71 7.67L102.71 7.67L102.71 7.67Q102.28 7.08 101.38 7.08L101.38 7.08L101.38 7.08Q100.78 7.08 100.39 7.36L100.39 7.36L100.39 7.36Q99.99 7.64 99.80 8.11L99.80 8.11L99.80 8.11Q99.62 8.59 99.62 9.17L99.62 9.17L99.62 9.17Q99.62 9.76 99.80 10.24L99.80 10.24L99.80 10.24Q99.99 10.73 100.39 11.02L100.39 11.02L100.39 11.02Q100.78 11.31 101.38 11.31L101.38 11.31Z"></path></g><defs data-v-fde0c5aa=""><linearGradient data-v-fde0c5aa="" gradientTransform="rotate(25)" id="b2c03b93-75bd-43f7-9a07-285e3adc57ee" x1="0%" y1="0%" x2="100%" y2="0%"><stop data-v-fde0c5aa="" offset="0%" stop-color="#01648B" stop-opacity="1"></stop><stop data-v-fde0c5aa="" offset="100%" stop-color="#5BD0A4" stop-opacity="1"></stop></linearGradient></defs><g data-v-fde0c5aa="" id="dd156314-6ac5-439a-8539-c93659d338dc" stroke="none" fill="url(#b2c03b93-75bd-43f7-9a07-285e3adc57ee)" transform="matrix(2.2440779270477735,0,0,2.2440779270477735,29.677238539412965,105.00623927478773)"><path clip-rule="evenodd" d="M26.7 13.4L25.2 16l6.6 4-6.6 4 1.5 2.6 8.7-5.3v-2.6l-8.7-5.3zm-13.4 0l-8.7 5.3v2.6l8.7 5.3 1.5-2.6-6.6-4 6.6-4-1.5-2.6zm3 14.2l2.9.7 3.5-15.8-2.9-.7-3.5 15.8z"></path></g><defs data-v-fde0c5aa=""><!----></defs><g data-v-fde0c5aa="" id="88fdc6bd-c27b-4dee-be9f-0028233a6b75" fill="#000000" transform="matrix(0.6798599833284285,0,0,0.6798599833284285,121.8864460442128,155.83809559113902)"><path d="M14.50 3.92L13.96 3.92L13.92 3.92L12.45 3.92L12.45 4.19C12.45 4.34 12.53 4.42 12.71 4.44L12.84 4.44C12.89 4.44 12.99 4.45 13.13 4.45C13.27 4.45 13.41 4.47 13.58 4.47L11.20 12.24C11.17 12.33 11.14 12.43 11.13 12.54C11.12 12.66 11.09 12.75 11.06 12.87C11.03 12.75 11.02 12.63 10.99 12.53L10.91 12.24L8.11 4.10C8.08 4.05 8.05 3.99 8.01 3.96C7.97 3.93 7.91 3.92 7.84 3.92L7.64 3.92C7.57 3.92 7.52 3.93 7.48 3.98C7.43 4.02 7.39 4.05 7.38 4.10L4.58 12.25C4.55 12.35 4.52 12.43 4.49 12.54C4.47 12.64 4.45 12.75 4.42 12.88C4.41 12.78 4.38 12.67 4.35 12.54C4.34 12.43 4.31 12.33 4.28 12.24L1.90 4.47C2.07 4.47 2.21 4.45 2.34 4.45C2.46 4.45 2.55 4.44 2.60 4.44L2.72 4.44C2.90 4.42 3.00 4.34 3.00 4.19L3.00 3.92L1.53 3.92L0.94 3.92L0.34 3.92L0.34 4.19C0.34 4.34 0.43 4.42 0.62 4.44L0.71 4.44C0.76 4.44 0.80 4.45 0.87 4.45C0.94 4.45 1.02 4.47 1.11 4.47L4.06 13.82L4.69 13.82L7.63 5.22C7.67 5.11 7.70 5.00 7.73 4.87C7.76 5.00 7.78 5.11 7.83 5.22L10.75 13.82L11.40 13.82L14.34 4.47C14.42 4.47 14.49 4.45 14.56 4.45C14.63 4.45 14.69 4.44 14.73 4.44L14.83 4.44C15.01 4.42 15.09 4.34 15.09 4.19L15.09 3.92ZM24.33 3.92L23.14 3.92L23.14 4.19C23.14 4.34 23.24 4.42 23.42 4.44L23.56 4.44C23.63 4.44 23.73 4.45 23.87 4.45C24.01 4.45 24.16 4.47 24.33 4.47L24.33 13.26C24.16 13.26 24.01 13.27 23.87 13.27C23.73 13.27 23.63 13.29 23.56 13.29L23.42 13.29C23.24 13.30 23.16 13.38 23.16 13.54L23.16 13.82L24.33 13.82L30.27 13.82L30.27 13.22L30.27 11.76L29.92 11.76C29.72 11.76 29.64 11.89 29.62 12.11C29.62 12.14 29.61 12.19 29.61 12.29C29.61 12.39 29.61 12.53 29.60 12.74C29.58 12.95 29.57 13.09 29.57 13.22L25.05 13.22L25.05 9.09L28.99 9.09L28.99 8.51L25.05 8.51L25.05 4.51L29.57 4.51C29.60 5.12 29.62 5.50 29.62 5.63C29.64 5.85 29.72 5.96 29.92 5.96L30.27 5.96L30.27 4.51L30.27 3.92ZM45.96 9.52C45.54 9.11 44.94 8.86 44.16 8.75C44.48 8.67 44.76 8.55 45.01 8.40C45.26 8.25 45.49 8.08 45.65 7.87C45.82 7.66 45.96 7.43 46.05 7.20C46.13 6.96 46.19 6.71 46.19 6.44C46.19 6.05 46.10 5.68 45.98 5.38C45.85 5.07 45.64 4.80 45.37 4.58C45.11 4.37 44.77 4.20 44.35 4.09C43.93 3.98 43.44 3.92 42.88 3.92L40.04 3.92L38.85 3.92L38.85 4.19C38.85 4.34 38.95 4.42 39.13 4.44L39.27 4.44C39.34 4.44 39.44 4.45 39.58 4.45C39.72 4.45 39.87 4.47 40.04 4.47L40.04 13.26C39.87 13.26 39.72 13.27 39.58 13.27C39.44 13.27 39.34 13.29 39.27 13.29L39.13 13.29C38.95 13.30 38.86 13.38 38.86 13.54L38.86 13.82L40.04 13.82L43.25 13.82C43.78 13.82 44.24 13.76 44.66 13.64C45.08 13.51 45.43 13.34 45.71 13.10C45.99 12.87 46.21 12.59 46.37 12.25C46.52 11.91 46.59 11.54 46.59 11.12C46.59 10.46 46.38 9.93 45.96 9.52ZM40.75 4.48L42.88 4.48C43.76 4.48 44.42 4.66 44.84 5.00C45.26 5.35 45.47 5.84 45.47 6.51C45.47 6.76 45.43 7.03 45.33 7.27C45.23 7.50 45.08 7.71 44.87 7.91C44.66 8.11 44.39 8.26 44.07 8.37C43.75 8.48 43.36 8.55 42.90 8.55L40.75 8.55ZM45.21 12.68C44.76 13.06 44.10 13.24 43.23 13.24L40.75 13.24L40.75 9.07L43.25 9.07C43.67 9.07 44.03 9.11 44.35 9.21C44.67 9.31 44.95 9.45 45.18 9.62C45.40 9.80 45.57 10.00 45.70 10.25C45.81 10.50 45.88 10.79 45.88 11.10C45.88 11.79 45.65 12.31 45.21 12.68ZM74.16 6.80C73.93 6.19 73.61 5.68 73.19 5.25C72.77 4.82 72.28 4.48 71.71 4.26C71.13 4.03 70.48 3.92 69.78 3.92L66.35 3.92L65.16 3.92L65.16 4.19C65.16 4.34 65.25 4.42 65.44 4.44L65.58 4.44C65.65 4.44 65.74 4.45 65.88 4.45C66.02 4.45 66.18 4.47 66.35 4.47L66.35 13.26C66.18 13.26 66.02 13.27 65.88 13.27C65.74 13.27 65.65 13.29 65.58 13.29L65.44 13.29C65.25 13.30 65.16 13.38 65.16 13.54L65.16 13.82L66.35 13.82L69.78 13.82C70.48 13.82 71.13 13.71 71.71 13.48C72.28 13.26 72.77 12.92 73.19 12.49C73.61 12.05 73.93 11.54 74.16 10.92C74.38 10.30 74.51 9.63 74.51 8.86C74.51 8.11 74.38 7.42 74.16 6.80ZM73.47 10.72C73.28 11.27 73.02 11.72 72.67 12.10C72.32 12.47 71.90 12.75 71.41 12.95C70.92 13.15 70.38 13.24 69.78 13.24L67.06 13.24L67.06 4.49L69.78 4.49C70.38 4.49 70.92 4.59 71.41 4.79C71.90 4.98 72.32 5.26 72.67 5.64C73.02 6.02 73.28 6.47 73.47 7.01C73.67 7.56 73.77 8.18 73.77 8.86C73.77 9.56 73.67 10.18 73.47 10.72ZM83.99 3.92L82.80 3.92L82.80 4.19C82.80 4.34 82.89 4.42 83.08 4.44L83.22 4.44C83.29 4.44 83.38 4.45 83.52 4.45C83.66 4.45 83.82 4.47 83.99 4.47L83.99 13.26C83.82 13.26 83.66 13.27 83.52 13.27C83.38 13.27 83.29 13.29 83.22 13.29L83.08 13.29C82.89 13.30 82.81 13.38 82.81 13.54L82.81 13.82L83.99 13.82L89.92 13.82L89.92 13.22L89.92 11.76L89.57 11.76C89.38 11.76 89.29 11.89 89.28 12.11C89.28 12.14 89.26 12.19 89.26 12.29C89.26 12.39 89.26 12.53 89.25 12.74C89.24 12.95 89.22 13.09 89.22 13.22L84.70 13.22L84.70 9.09L88.65 9.09L88.65 8.51L84.70 8.51L84.70 4.51L89.22 4.51C89.25 5.12 89.28 5.50 89.28 5.63C89.29 5.85 89.38 5.96 89.57 5.96L89.92 5.96L89.92 4.51L89.92 3.92ZM107.41 3.92L106.85 3.92L106.82 3.92L105.35 3.92L105.35 4.19C105.35 4.34 105.43 4.42 105.62 4.44L105.74 4.44C105.80 4.44 105.88 4.45 106.01 4.45C106.13 4.45 106.27 4.47 106.43 4.47L103.22 12.32C103.14 12.53 103.07 12.75 103.01 13.01C102.96 12.77 102.89 12.53 102.80 12.32L99.57 4.47C99.72 4.47 99.88 4.45 100.00 4.45C100.13 4.45 100.21 4.44 100.27 4.44L100.38 4.44C100.56 4.42 100.66 4.34 100.66 4.19L100.66 3.92L99.16 3.92L98.60 3.92L98 3.92L98 4.19C98 4.34 98.10 4.42 98.28 4.44L98.38 4.44C98.42 4.44 98.49 4.45 98.56 4.45C98.63 4.45 98.73 4.47 98.83 4.47L102.69 13.82L103.32 13.82L107.18 4.47C107.28 4.47 107.38 4.45 107.45 4.45C107.52 4.45 107.59 4.44 107.63 4.44L107.72 4.44C107.90 4.42 108.00 4.34 108.00 4.19L108.00 3.92ZM117.24 3.92L116.05 3.92L116.05 4.19C116.05 4.34 116.14 4.42 116.33 4.44L116.47 4.44C116.54 4.44 116.63 4.45 116.77 4.45C116.91 4.45 117.07 4.47 117.24 4.47L117.24 13.26C117.07 13.26 116.91 13.27 116.77 13.27C116.63 13.27 116.54 13.29 116.47 13.29L116.33 13.29C116.14 13.30 116.06 13.38 116.06 13.54L116.06 13.82L117.24 13.82L123.17 13.82L123.17 13.22L123.17 11.76L122.82 11.76C122.63 11.76 122.54 11.89 122.53 12.11C122.53 12.14 122.51 12.19 122.51 12.29C122.51 12.39 122.51 12.53 122.50 12.74C122.49 12.95 122.47 13.09 122.47 13.22L117.95 13.22L117.95 9.09L121.90 9.09L121.90 8.51L117.95 8.51L117.95 4.51L122.47 4.51C122.50 5.12 122.53 5.50 122.53 5.63C122.54 5.85 122.63 5.96 122.82 5.96L123.17 5.96L123.17 4.51L123.17 3.92ZM138.12 11.97C137.93 11.97 137.84 12.08 137.83 12.31C137.83 12.32 137.83 12.38 137.82 12.43C137.80 12.49 137.80 12.59 137.79 12.71C137.77 12.84 137.76 13.01 137.75 13.20L133.66 13.20L133.66 4.47C133.83 4.47 133.97 4.45 134.11 4.45C134.25 4.45 134.36 4.44 134.43 4.44L134.55 4.44C134.74 4.42 134.83 4.34 134.83 4.19L134.83 3.92L133.66 3.92L132.94 3.92L131.75 3.92L131.75 4.19C131.75 4.34 131.85 4.42 132.03 4.44L132.17 4.44C132.24 4.44 132.34 4.45 132.48 4.45C132.62 4.45 132.78 4.47 132.94 4.47L132.94 13.26C132.78 13.26 132.62 13.27 132.48 13.27C132.34 13.27 132.24 13.29 132.17 13.29L132.03 13.29C131.85 13.30 131.75 13.38 131.75 13.54L131.75 13.82L132.94 13.82L138.22 13.82L138.35 13.82L138.47 13.82L138.47 13.55L138.47 12.99L138.47 11.97L138.19 11.97ZM155.61 8.86C155.61 8.11 155.48 7.41 155.26 6.79C155.04 6.17 154.71 5.64 154.29 5.19C153.87 4.75 153.38 4.40 152.81 4.16C152.24 3.92 151.58 3.79 150.88 3.79C150.18 3.79 149.55 3.92 148.97 4.16C148.40 4.40 147.90 4.75 147.48 5.19C147.06 5.64 146.73 6.17 146.51 6.79C146.29 7.41 146.16 8.11 146.16 8.86C146.16 9.63 146.29 10.33 146.51 10.95C146.73 11.56 147.06 12.10 147.48 12.54C147.90 12.99 148.40 13.33 148.97 13.57C149.55 13.80 150.18 13.93 150.88 13.93C151.58 13.93 152.24 13.80 152.81 13.57C153.38 13.33 153.87 12.99 154.29 12.54C154.71 12.10 155.04 11.56 155.26 10.95C155.48 10.33 155.61 9.63 155.61 8.86ZM154.85 8.86C154.85 9.56 154.77 10.18 154.57 10.72C154.38 11.27 154.11 11.75 153.76 12.12C153.41 12.50 152.99 12.81 152.50 13.01C152.01 13.20 151.48 13.30 150.88 13.30C150.29 13.30 149.76 13.20 149.27 13.01C148.78 12.81 148.36 12.50 148.01 12.12C147.66 11.75 147.38 11.27 147.18 10.72C146.99 10.18 146.90 9.56 146.90 8.86C146.90 8.18 146.99 7.55 147.18 7.00C147.38 6.45 147.66 5.98 148.01 5.60C148.36 5.22 148.78 4.91 149.27 4.72C149.76 4.52 150.29 4.41 150.88 4.41C151.48 4.41 152.01 4.52 152.50 4.72C152.99 4.91 153.41 5.22 153.76 5.60C154.11 5.98 154.38 6.45 154.57 7.00C154.77 7.55 154.85 8.18 154.85 8.86ZM170.11 4.68C169.53 4.17 168.64 3.92 167.48 3.92L165.07 3.92L163.88 3.92L163.88 4.19C163.88 4.34 163.98 4.42 164.16 4.44L164.30 4.44C164.37 4.44 164.47 4.45 164.61 4.45C164.75 4.45 164.91 4.47 165.07 4.47L165.07 13.26C164.91 13.26 164.75 13.27 164.61 13.27C164.47 13.27 164.37 13.29 164.30 13.29L164.16 13.29C163.98 13.30 163.88 13.38 163.88 13.54L163.88 13.82L165.07 13.82L165.79 13.82L166.96 13.82L166.96 13.54C166.96 13.38 166.87 13.30 166.68 13.29L166.56 13.29C166.49 13.29 166.38 13.27 166.24 13.27C166.10 13.27 165.96 13.26 165.79 13.26L165.79 9.83L167.48 9.83C168.03 9.83 168.52 9.74 168.95 9.60C169.39 9.45 169.75 9.25 170.06 8.99C170.37 8.72 170.60 8.41 170.76 8.05C170.93 7.69 171.00 7.29 171.00 6.86C171.00 5.92 170.70 5.18 170.11 4.68ZM170.09 7.81C169.96 8.11 169.78 8.36 169.54 8.57C169.30 8.78 169.01 8.95 168.66 9.07C168.31 9.20 167.92 9.25 167.48 9.25L165.79 9.25L165.79 4.48L167.48 4.48C168.41 4.48 169.11 4.69 169.58 5.10C170.04 5.50 170.28 6.09 170.28 6.85C170.28 7.20 170.21 7.52 170.09 7.81ZM180.38 3.92L179.19 3.92L179.19 4.19C179.19 4.34 179.28 4.42 179.47 4.44L179.61 4.44C179.68 4.44 179.77 4.45 179.91 4.45C180.05 4.45 180.21 4.47 180.38 4.47L180.38 13.26C180.21 13.26 180.05 13.27 179.91 13.27C179.77 13.27 179.68 13.29 179.61 13.29L179.47 13.29C179.28 13.30 179.20 13.38 179.20 13.54L179.20 13.82L180.38 13.82L186.31 13.82L186.31 13.22L186.31 11.76L185.96 11.76C185.77 11.76 185.68 11.89 185.67 12.11C185.67 12.14 185.65 12.19 185.65 12.29C185.65 12.39 185.65 12.53 185.64 12.74C185.63 12.95 185.61 13.09 185.61 13.22L181.09 13.22L181.09 9.09L185.04 9.09L185.04 8.51L181.09 8.51L181.09 4.51L185.61 4.51C185.64 5.12 185.67 5.50 185.67 5.63C185.68 5.85 185.77 5.96 185.96 5.96L186.31 5.96L186.31 4.51L186.31 3.92ZM202.89 13.29L202.79 13.29L202.61 13.29C202.52 13.29 202.44 13.27 202.36 13.27L199.39 9.53C199.30 9.42 199.19 9.32 199.08 9.25C199.51 9.21 199.91 9.11 200.26 8.96C200.61 8.81 200.89 8.61 201.14 8.37C201.38 8.13 201.57 7.85 201.70 7.55C201.82 7.24 201.89 6.89 201.89 6.51C201.89 5.66 201.61 5.03 201.05 4.58C200.49 4.14 199.64 3.92 198.49 3.92L196.08 3.92L194.91 3.92L194.91 4.19C194.91 4.34 194.99 4.42 195.17 4.44L195.31 4.44C195.38 4.44 195.48 4.45 195.62 4.45C195.76 4.45 195.92 4.47 196.08 4.47L196.08 13.26C195.92 13.26 195.76 13.27 195.62 13.27C195.48 13.27 195.38 13.29 195.31 13.29L195.17 13.29C194.99 13.30 194.89 13.38 194.89 13.54L194.89 13.82L196.08 13.82L196.80 13.82L197.97 13.82L197.97 13.54C197.97 13.38 197.88 13.30 197.69 13.29L197.55 13.29C197.48 13.29 197.39 13.27 197.25 13.27C197.11 13.27 196.97 13.26 196.80 13.26L196.80 9.34L197.97 9.34C198.17 9.34 198.31 9.35 198.39 9.39C198.48 9.44 198.56 9.52 198.65 9.62L201.82 13.64C201.88 13.71 201.92 13.75 201.98 13.78C202.03 13.80 202.10 13.82 202.17 13.82L202.24 13.82L202.79 13.82L203.15 13.82L203.15 13.54C203.15 13.38 203.07 13.30 202.89 13.29ZM198.39 8.81L196.80 8.81L196.80 4.48L198.49 4.48C199.37 4.48 200.05 4.66 200.51 5.00C200.97 5.33 201.19 5.87 201.19 6.57C201.19 6.92 201.14 7.21 201.01 7.49C200.89 7.77 200.69 7.99 200.45 8.19C200.21 8.39 199.92 8.55 199.57 8.65C199.22 8.75 198.83 8.81 198.39 8.81Z"></path></g></svg>