<svg xmlns="http://www.w3.org/2000/svg" version="1.1" xmlns:xlink="http://www.w3.org/1999/xlink" xmlns:svgjs="http://svgjs.com/svgjs" width="1600" height="1400" preserveAspectRatio="none" viewBox="0 0 1600 1400"><g mask="url(&quot;#SvgjsMask1356&quot;)" fill="none"><rect width="1600" height="1400" x="0" y="0" fill="rgba(0, 0, 0, 0.82)"></rect><g mask="url(&quot;#SvgjsMask1357&quot;)"><path d="M656 304L624 272L624 176L656 144L656 16" stroke-width="5.33" stroke="rgba(46, 195, 243, 0.27)"></path><path d="M648 304 a8 8 0 1 0 16 0 a8 8 0 1 0 -16 0zM648 16 a8 8 0 1 0 16 0 a8 8 0 1 0 -16 0z" fill="rgba(46, 195, 243, 0.27)"></path><path d="M1168 368L1136 336L1136 112L1232 16L1488 16" stroke-width="5.33" stroke="rgba(46, 195, 243, 0.27)"></path><path d="M1160 368 a8 8 0 1 0 16 0 a8 8 0 1 0 -16 0zM1480 16 a8 8 0 1 0 16 0 a8 8 0 1 0 -16 0z" fill="rgba(46, 195, 243, 0.27)"></path><path d="M112 464L112 560L304 752L304 1072" stroke-width="5.33" stroke="rgba(46, 195, 243, 0.27)"></path><path d="M104 464 a8 8 0 1 0 16 0 a8 8 0 1 0 -16 0zM296 1072 a8 8 0 1 0 16 0 a8 8 0 1 0 -16 0z" fill="rgba(46, 195, 243, 0.27)"></path><path d="M720 1072L720 688L944 464" stroke-width="5.33" stroke="rgba(46, 195, 243, 0.27)"></path><path d="M712 1072 a8 8 0 1 0 16 0 a8 8 0 1 0 -16 0zM936 464 a8 8 0 1 0 16 0 a8 8 0 1 0 -16 0z" fill="rgba(46, 195, 243, 0.27)"></path><path d="M1392 48L1584 48" stroke-width="5.33" stroke="rgba(46, 195, 243, 0.27)"></path><path d="M1384 48 a8 8 0 1 0 16 0 a8 8 0 1 0 -16 0zM1576 48 a8 8 0 1 0 16 0 a8 8 0 1 0 -16 0z" fill="rgba(46, 195, 243, 0.27)"></path><path d="M240 528L624 144L624 16" stroke-width="5.33" stroke="rgba(46, 195, 243, 0.27)"></path><path d="M232 528 a8 8 0 1 0 16 0 a8 8 0 1 0 -16 0zM616 16 a8 8 0 1 0 16 0 a8 8 0 1 0 -16 0z" fill="rgba(46, 195, 243, 0.27)"></path><path d="M624 592L624 752L336 1040L336 1200" stroke-width="5.33" stroke="rgba(46, 195, 243, 0.27)"></path><path d="M616 592 a8 8 0 1 0 16 0 a8 8 0 1 0 -16 0zM328 1200 a8 8 0 1 0 16 0 a8 8 0 1 0 -16 0z" fill="rgba(46, 195, 243, 0.27)"></path><path d="M944 240L560 624L336 624" stroke-width="5.33" stroke="rgba(46, 195, 243, 0.27)"></path><path d="M936 240 a8 8 0 1 0 16 0 a8 8 0 1 0 -16 0zM328 624 a8 8 0 1 0 16 0 a8 8 0 1 0 -16 0z" fill="rgba(46, 195, 243, 0.27)"></path><path d="M1488 688L1552 688L1584 656L1584 144" stroke-width="5.33" stroke="rgba(46, 195, 243, 0.27)"></path><path d="M1480 688 a8 8 0 1 0 16 0 a8 8 0 1 0 -16 0zM1576 144 a8 8 0 1 0 16 0 a8 8 0 1 0 -16 0z" fill="rgba(46, 195, 243, 0.27)"></path><path d="M16 1200L16 1392" stroke-width="5.33" stroke="rgba(46, 195, 243, 0.27)"></path><path d="M8 1200 a8 8 0 1 0 16 0 a8 8 0 1 0 -16 0zM8 1392 a8 8 0 1 0 16 0 a8 8 0 1 0 -16 0z" fill="rgba(46, 195, 243, 0.27)"></path><path d="M688 848L560 848L368 1040L368 1328" stroke-width="5.33" stroke="rgba(46, 195, 243, 0.27)"></path><path d="M680 848 a8 8 0 1 0 16 0 a8 8 0 1 0 -16 0zM360 1328 a8 8 0 1 0 16 0 a8 8 0 1 0 -16 0z" fill="rgba(46, 195, 243, 0.27)"></path><path d="M1584 1040L976 432" stroke-width="5.33" stroke="rgba(46, 195, 243, 0.27)"></path><path d="M1576 1040 a8 8 0 1 0 16 0 a8 8 0 1 0 -16 0zM968 432 a8 8 0 1 0 16 0 a8 8 0 1 0 -16 0z" fill="rgba(46, 195, 243, 0.27)"></path><path d="M1264 1296L1264 816L1136 688" stroke-width="5.33" stroke="rgba(46, 195, 243, 0.27)"></path><path d="M1256 1296 a8 8 0 1 0 16 0 a8 8 0 1 0 -16 0zM1128 688 a8 8 0 1 0 16 0 a8 8 0 1 0 -16 0z" fill="rgba(46, 195, 243, 0.27)"></path><path d="M880 1040L976 1136L976 1328L1040 1392L1296 1392" stroke-width="5.33" stroke="rgba(46, 195, 243, 0.27)"></path><path d="M872 1040 a8 8 0 1 0 16 0 a8 8 0 1 0 -16 0zM1288 1392 a8 8 0 1 0 16 0 a8 8 0 1 0 -16 0z" fill="rgba(46, 195, 243, 0.27)"></path><path d="M528 560L496 592L336 592L272 528" stroke-width="5.33" stroke="rgba(46, 195, 243, 0.27)"></path><path d="M520 560 a8 8 0 1 0 16 0 a8 8 0 1 0 -16 0zM264 528 a8 8 0 1 0 16 0 a8 8 0 1 0 -16 0z" fill="rgba(46, 195, 243, 0.27)"></path><path d="M1296 560L1360 624L1360 656L1424 720L1584 720" stroke-width="5.33" stroke="rgba(46, 195, 243, 0.27)"></path><path d="M1288 560 a8 8 0 1 0 16 0 a8 8 0 1 0 -16 0zM1576 720 a8 8 0 1 0 16 0 a8 8 0 1 0 -16 0z" fill="rgba(46, 195, 243, 0.27)"></path><path d="M496 400L528 400L592 464L592 560L560 592L528 592" stroke-width="5.33" stroke="rgba(46, 195, 243, 0.27)"></path><path d="M488 400 a8 8 0 1 0 16 0 a8 8 0 1 0 -16 0zM520 592 a8 8 0 1 0 16 0 a8 8 0 1 0 -16 0z" fill="rgba(46, 195, 243, 0.27)"></path><path d="M496 208L144 560" stroke-width="5.33" stroke="rgba(46, 195, 243, 0.27)"></path><path d="M488 208 a8 8 0 1 0 16 0 a8 8 0 1 0 -16 0zM136 560 a8 8 0 1 0 16 0 a8 8 0 1 0 -16 0z" fill="rgba(46, 195, 243, 0.27)"></path><path d="M688 1168L592 1168L368 1392L80 1392" stroke-width="5.33" stroke="rgba(46, 195, 243, 0.27)"></path><path d="M680 1168 a8 8 0 1 0 16 0 a8 8 0 1 0 -16 0zM72 1392 a8 8 0 1 0 16 0 a8 8 0 1 0 -16 0z" fill="rgba(46, 195, 243, 0.27)"></path><path d="M1008 1328L1040 1360L1360 1360L1392 1392L1488 1392L1552 1328L1552 1296L1584 1264" stroke-width="5.33" stroke="rgba(46, 195, 243, 0.27)"></path><path d="M1000 1328 a8 8 0 1 0 16 0 a8 8 0 1 0 -16 0zM1576 1264 a8 8 0 1 0 16 0 a8 8 0 1 0 -16 0z" fill="rgba(46, 195, 243, 0.27)"></path><path d="M144 976L144 1232L48 1328L48 1392" stroke-width="5.33" stroke="rgba(46, 195, 243, 0.27)"></path><path d="M136 976 a8 8 0 1 0 16 0 a8 8 0 1 0 -16 0zM40 1392 a8 8 0 1 0 16 0 a8 8 0 1 0 -16 0z" fill="rgba(46, 195, 243, 0.27)"></path><path d="M48 432L80 464L80 720L16 784L16 880L48 912L112 912L176 976" stroke-width="5.33" stroke="rgba(46, 195, 243, 0.27)"></path><path d="M40 432 a8 8 0 1 0 16 0 a8 8 0 1 0 -16 0zM168 976 a8 8 0 1 0 16 0 a8 8 0 1 0 -16 0z" fill="rgba(46, 195, 243, 0.27)"></path><path d="M272 16L592 16" stroke-width="5.33" stroke="rgba(46, 195, 243, 0.27)"></path><path d="M264 16 a8 8 0 1 0 16 0 a8 8 0 1 0 -16 0zM584 16 a8 8 0 1 0 16 0 a8 8 0 1 0 -16 0z" fill="rgba(46, 195, 243, 0.27)"></path><path d="M1104 1200L1232 1072L1232 816L1008 592" stroke-width="5.33" stroke="rgba(46, 195, 243, 0.27)"></path><path d="M1096 1200 a8 8 0 1 0 16 0 a8 8 0 1 0 -16 0zM1000 592 a8 8 0 1 0 16 0 a8 8 0 1 0 -16 0z" fill="rgba(46, 195, 243, 0.27)"></path><path d="M720 592L720 496L1200 16" stroke-width="5.33" stroke="rgba(46, 195, 243, 0.27)"></path><path d="M712 592 a8 8 0 1 0 16 0 a8 8 0 1 0 -16 0zM1192 16 a8 8 0 1 0 16 0 a8 8 0 1 0 -16 0z" fill="rgba(46, 195, 243, 0.27)"></path><path d="M1488 528L1424 592L1360 592L1264 496L1264 112" stroke-width="5.33" stroke="rgba(46, 195, 243, 0.27)"></path><path d="M1480 528 a8 8 0 1 0 16 0 a8 8 0 1 0 -16 0zM1256 112 a8 8 0 1 0 16 0 a8 8 0 1 0 -16 0z" fill="rgba(46, 195, 243, 0.27)"></path><path d="M1008 176L1168 16" stroke-width="5.33" stroke="rgba(46, 195, 243, 0.27)"></path><path d="M1000 176 a8 8 0 1 0 16 0 a8 8 0 1 0 -16 0zM1160 16 a8 8 0 1 0 16 0 a8 8 0 1 0 -16 0z" fill="rgba(46, 195, 243, 0.27)"></path><path d="M688 784L656 816L592 816" stroke-width="5.33" stroke="rgba(46, 195, 243, 0.27)"></path><path d="M680 784 a8 8 0 1 0 16 0 a8 8 0 1 0 -16 0zM584 816 a8 8 0 1 0 16 0 a8 8 0 1 0 -16 0z" fill="rgba(46, 195, 243, 0.27)"></path><path d="M208 848L176 848L144 880L48 880" stroke-width="5.33" stroke="rgba(46, 195, 243, 0.27)"></path><path d="M200 848 a8 8 0 1 0 16 0 a8 8 0 1 0 -16 0zM40 880 a8 8 0 1 0 16 0 a8 8 0 1 0 -16 0z" fill="rgba(46, 195, 243, 0.27)"></path><path d="M112 112L272 272L272 336L144 464L144 528" stroke-width="5.33" stroke="rgba(46, 195, 243, 0.27)"></path><path d="M104 112 a8 8 0 1 0 16 0 a8 8 0 1 0 -16 0zM136 528 a8 8 0 1 0 16 0 a8 8 0 1 0 -16 0z" fill="rgba(46, 195, 243, 0.27)"></path><path d="M400 112L400 272L176 496" stroke-width="5.33" stroke="rgba(46, 195, 243, 0.27)"></path><path d="M392 112 a8 8 0 1 0 16 0 a8 8 0 1 0 -16 0zM168 496 a8 8 0 1 0 16 0 a8 8 0 1 0 -16 0z" fill="rgba(46, 195, 243, 0.27)"></path><path d="M1296 976L1296 784L1200 688" stroke-width="5.33" stroke="rgba(46, 195, 243, 0.27)"></path><path d="M1288 976 a8 8 0 1 0 16 0 a8 8 0 1 0 -16 0zM1192 688 a8 8 0 1 0 16 0 a8 8 0 1 0 -16 0z" fill="rgba(46, 195, 243, 0.27)"></path><path d="M1584 752L1328 752L976 400" stroke-width="5.33" stroke="rgba(46, 195, 243, 0.27)"></path><path d="M1576 752 a8 8 0 1 0 16 0 a8 8 0 1 0 -16 0zM968 400 a8 8 0 1 0 16 0 a8 8 0 1 0 -16 0z" fill="rgba(46, 195, 243, 0.27)"></path><path d="M400 816L464 880" stroke-width="5.33" stroke="rgba(46, 195, 243, 0.27)"></path><path d="M392 816 a8 8 0 1 0 16 0 a8 8 0 1 0 -16 0zM456 880 a8 8 0 1 0 16 0 a8 8 0 1 0 -16 0z" fill="rgba(46, 195, 243, 0.27)"></path><path d="M304 1360L80 1360" stroke-width="5.33" stroke="rgba(46, 195, 243, 0.27)"></path><path d="M296 1360 a8 8 0 1 0 16 0 a8 8 0 1 0 -16 0zM72 1360 a8 8 0 1 0 16 0 a8 8 0 1 0 -16 0z" fill="rgba(46, 195, 243, 0.27)"></path><path d="M816 304L720 208L656 208" stroke-width="5.33" stroke="rgba(46, 195, 243, 0.27)"></path><path d="M808 304 a8 8 0 1 0 16 0 a8 8 0 1 0 -16 0zM648 208 a8 8 0 1 0 16 0 a8 8 0 1 0 -16 0z" fill="rgba(46, 195, 243, 0.27)"></path><path d="M1392 1072L1296 1168L1296 1328" stroke-width="5.33" stroke="rgba(46, 195, 243, 0.27)"></path><path d="M1384 1072 a8 8 0 1 0 16 0 a8 8 0 1 0 -16 0zM1288 1328 a8 8 0 1 0 16 0 a8 8 0 1 0 -16 0z" fill="rgba(46, 195, 243, 0.27)"></path><path d="M1552 368L1552 400L1424 528L1424 560" stroke-width="5.33" stroke="rgba(46, 195, 243, 0.27)"></path><path d="M1544 368 a8 8 0 1 0 16 0 a8 8 0 1 0 -16 0zM1416 560 a8 8 0 1 0 16 0 a8 8 0 1 0 -16 0z" fill="rgba(46, 195, 243, 0.27)"></path><path d="M592 688L272 688L176 592L176 560L208 528" stroke-width="5.33" stroke="rgba(46, 195, 243, 0.27)"></path><path d="M584 688 a8 8 0 1 0 16 0 a8 8 0 1 0 -16 0zM200 528 a8 8 0 1 0 16 0 a8 8 0 1 0 -16 0z" fill="rgba(46, 195, 243, 0.27)"></path><path d="M1072 1008L1072 1232L1008 1296" stroke-width="5.33" stroke="rgba(46, 195, 243, 0.27)"></path><path d="M1064 1008 a8 8 0 1 0 16 0 a8 8 0 1 0 -16 0zM1000 1296 a8 8 0 1 0 16 0 a8 8 0 1 0 -16 0z" fill="rgba(46, 195, 243, 0.27)"></path><path d="M656 336L592 400L560 400L496 336L496 304L592 208" stroke-width="5.33" stroke="rgba(46, 195, 243, 0.27)"></path><path d="M648 336 a8 8 0 1 0 16 0 a8 8 0 1 0 -16 0zM584 208 a8 8 0 1 0 16 0 a8 8 0 1 0 -16 0z" fill="rgba(46, 195, 243, 0.27)"></path><path d="M336 560L304 528L304 496L464 336" stroke-width="5.33" stroke="rgba(46, 195, 243, 0.27)"></path><path d="M328 560 a8 8 0 1 0 16 0 a8 8 0 1 0 -16 0zM456 336 a8 8 0 1 0 16 0 a8 8 0 1 0 -16 0z" fill="rgba(46, 195, 243, 0.27)"></path><path d="M752 592L816 528L848 528L944 432L944 400L1104 240L1104 144" stroke-width="5.33" stroke="rgba(46, 195, 243, 0.27)"></path><path d="M744 592 a8 8 0 1 0 16 0 a8 8 0 1 0 -16 0zM1096 144 a8 8 0 1 0 16 0 a8 8 0 1 0 -16 0z" fill="rgba(46, 195, 243, 0.27)"></path><path d="M1456 272L1488 304L1552 304" stroke-width="5.33" stroke="rgba(46, 195, 243, 0.27)"></path><path d="M1448 272 a8 8 0 1 0 16 0 a8 8 0 1 0 -16 0zM1544 304 a8 8 0 1 0 16 0 a8 8 0 1 0 -16 0z" fill="rgba(46, 195, 243, 0.27)"></path><path d="M240 48L176 112L144 112L48 16L16 16" stroke-width="5.33" stroke="rgba(46, 195, 243, 0.27)"></path><path d="M232 48 a8 8 0 1 0 16 0 a8 8 0 1 0 -16 0zM8 16 a8 8 0 1 0 16 0 a8 8 0 1 0 -16 0z" fill="rgba(46, 195, 243, 0.27)"></path><path d="M720 112L688 144L688 176" stroke-width="5.33" stroke="rgba(46, 195, 243, 0.27)"></path><path d="M712 112 a8 8 0 1 0 16 0 a8 8 0 1 0 -16 0zM680 176 a8 8 0 1 0 16 0 a8 8 0 1 0 -16 0z" fill="rgba(46, 195, 243, 0.27)"></path><path d="M656 624L656 656L688 688L688 752L656 784L624 784" stroke-width="5.33" stroke="rgba(46, 195, 243, 0.27)"></path><path d="M648 624 a8 8 0 1 0 16 0 a8 8 0 1 0 -16 0zM616 784 a8 8 0 1 0 16 0 a8 8 0 1 0 -16 0z" fill="rgba(46, 195, 243, 0.27)"></path><path d="M48 848L144 848L208 784L272 784" stroke-width="5.33" stroke="rgba(46, 195, 243, 0.27)"></path><path d="M40 848 a8 8 0 1 0 16 0 a8 8 0 1 0 -16 0zM264 784 a8 8 0 1 0 16 0 a8 8 0 1 0 -16 0z" fill="rgba(46, 195, 243, 0.27)"></path><path d="M496 656L272 656L208 592L208 560" stroke-width="5.33" stroke="rgba(46, 195, 243, 0.27)"></path><path d="M488 656 a8 8 0 1 0 16 0 a8 8 0 1 0 -16 0zM200 560 a8 8 0 1 0 16 0 a8 8 0 1 0 -16 0z" fill="rgba(46, 195, 243, 0.27)"></path><path d="M784 880L976 880L1104 752L1104 720L1040 656L880 656L848 624" stroke-width="5.33" stroke="rgba(46, 195, 243, 0.27)"></path><path d="M776 880 a8 8 0 1 0 16 0 a8 8 0 1 0 -16 0zM840 624 a8 8 0 1 0 16 0 a8 8 0 1 0 -16 0z" fill="rgba(46, 195, 243, 0.27)"></path><path d="M496 1008L432 1008L400 1040L400 1264L432 1296" stroke-width="5.33" stroke="rgba(46, 195, 243, 0.27)"></path><path d="M488 1008 a8 8 0 1 0 16 0 a8 8 0 1 0 -16 0zM424 1296 a8 8 0 1 0 16 0 a8 8 0 1 0 -16 0z" fill="rgba(46, 195, 243, 0.27)"></path><path d="M1456 176L1360 272L1360 400L1424 464L1424 496L1360 560" stroke-width="5.33" stroke="rgba(46, 195, 243, 0.27)"></path><path d="M1448 176 a8 8 0 1 0 16 0 a8 8 0 1 0 -16 0zM1352 560 a8 8 0 1 0 16 0 a8 8 0 1 0 -16 0z" fill="rgba(46, 195, 243, 0.27)"></path><path d="M1424 240L1424 432L1456 464" stroke-width="5.33" stroke="rgba(46, 195, 243, 0.27)"></path><path d="M1416 240 a8 8 0 1 0 16 0 a8 8 0 1 0 -16 0zM1448 464 a8 8 0 1 0 16 0 a8 8 0 1 0 -16 0z" fill="rgba(46, 195, 243, 0.27)"></path><path d="M880 80L944 16L1008 16L1072 80" stroke-width="5.33" stroke="rgba(46, 195, 243, 0.27)"></path><path d="M872 80 a8 8 0 1 0 16 0 a8 8 0 1 0 -16 0zM1064 80 a8 8 0 1 0 16 0 a8 8 0 1 0 -16 0z" fill="rgba(46, 195, 243, 0.27)"></path><path d="M112 1072L16 1168" stroke-width="5.33" stroke="rgba(46, 195, 243, 0.27)"></path><path d="M104 1072 a8 8 0 1 0 16 0 a8 8 0 1 0 -16 0zM8 1168 a8 8 0 1 0 16 0 a8 8 0 1 0 -16 0z" fill="rgba(46, 195, 243, 0.27)"></path><path d="M80 1200L80 1264L48 1296" stroke-width="5.33" stroke="rgba(46, 195, 243, 0.27)"></path><path d="M72 1200 a8 8 0 1 0 16 0 a8 8 0 1 0 -16 0zM40 1296 a8 8 0 1 0 16 0 a8 8 0 1 0 -16 0z" fill="rgba(46, 195, 243, 0.27)"></path><path d="M1296 112L1392 208" stroke-width="5.33" stroke="rgba(46, 195, 243, 0.27)"></path><path d="M1288 112 a8 8 0 1 0 16 0 a8 8 0 1 0 -16 0zM1384 208 a8 8 0 1 0 16 0 a8 8 0 1 0 -16 0z" fill="rgba(46, 195, 243, 0.27)"></path><path d="M1584 1104L1392 1104L1328 1168L1328 1232L1456 1360L1488 1360L1520 1328L1520 1232" stroke-width="5.33" stroke="rgba(46, 195, 243, 0.27)"></path><path d="M1576 1104 a8 8 0 1 0 16 0 a8 8 0 1 0 -16 0zM1512 1232 a8 8 0 1 0 16 0 a8 8 0 1 0 -16 0z" fill="rgba(46, 195, 243, 0.27)"></path><path d="M1136 976L1200 976" stroke-width="5.33" stroke="rgba(46, 195, 243, 0.27)"></path><path d="M1128 976 a8 8 0 1 0 16 0 a8 8 0 1 0 -16 0zM1192 976 a8 8 0 1 0 16 0 a8 8 0 1 0 -16 0z" fill="rgba(46, 195, 243, 0.27)"></path><path d="M688 1328L944 1328L1008 1392" stroke-width="5.33" stroke="rgba(46, 195, 243, 0.27)"></path><path d="M680 1328 a8 8 0 1 0 16 0 a8 8 0 1 0 -16 0zM1000 1392 a8 8 0 1 0 16 0 a8 8 0 1 0 -16 0z" fill="rgba(46, 195, 243, 0.27)"></path><path d="M720 144L720 176L752 208L848 208L880 240L912 240L1040 112L1040 80L1008 48L944 48L816 176" stroke-width="5.33" stroke="rgba(46, 195, 243, 0.27)"></path><path d="M712 144 a8 8 0 1 0 16 0 a8 8 0 1 0 -16 0zM808 176 a8 8 0 1 0 16 0 a8 8 0 1 0 -16 0z" fill="rgba(46, 195, 243, 0.27)"></path><path d="M1296 48L1296 80L1392 176L1424 176L1520 80L1584 80" stroke-width="5.33" stroke="rgba(46, 195, 243, 0.27)"></path><path d="M1288 48 a8 8 0 1 0 16 0 a8 8 0 1 0 -16 0zM1576 80 a8 8 0 1 0 16 0 a8 8 0 1 0 -16 0z" fill="rgba(46, 195, 243, 0.27)"></path><path d="M752 624L720 656L688 656" stroke-width="5.33" stroke="rgba(46, 195, 243, 0.27)"></path><path d="M744 624 a8 8 0 1 0 16 0 a8 8 0 1 0 -16 0zM680 656 a8 8 0 1 0 16 0 a8 8 0 1 0 -16 0z" fill="rgba(46, 195, 243, 0.27)"></path><path d="M816 1072L784 1104L688 1104L656 1136L432 1136" stroke-width="5.33" stroke="rgba(46, 195, 243, 0.27)"></path><path d="M808 1072 a8 8 0 1 0 16 0 a8 8 0 1 0 -16 0zM424 1136 a8 8 0 1 0 16 0 a8 8 0 1 0 -16 0z" fill="rgba(46, 195, 243, 0.27)"></path><path d="M560 528L432 400" stroke-width="5.33" stroke="rgba(46, 195, 243, 0.27)"></path><path d="M552 528 a8 8 0 1 0 16 0 a8 8 0 1 0 -16 0zM424 400 a8 8 0 1 0 16 0 a8 8 0 1 0 -16 0z" fill="rgba(46, 195, 243, 0.27)"></path><path d="M1360 528L1328 496L1328 176L1296 144" stroke-width="5.33" stroke="rgba(46, 195, 243, 0.27)"></path><path d="M1352 528 a8 8 0 1 0 16 0 a8 8 0 1 0 -16 0zM1288 144 a8 8 0 1 0 16 0 a8 8 0 1 0 -16 0z" fill="rgba(46, 195, 243, 0.27)"></path><path d="M176 1040L176 1008L272 912L272 880L208 816" stroke-width="5.33" stroke="rgba(46, 195, 243, 0.27)"></path><path d="M168 1040 a8 8 0 1 0 16 0 a8 8 0 1 0 -16 0zM200 816 a8 8 0 1 0 16 0 a8 8 0 1 0 -16 0z" fill="rgba(46, 195, 243, 0.27)"></path><path d="M912 816L784 688L752 688" stroke-width="5.33" stroke="rgba(46, 195, 243, 0.27)"></path><path d="M904 816 a8 8 0 1 0 16 0 a8 8 0 1 0 -16 0zM744 688 a8 8 0 1 0 16 0 a8 8 0 1 0 -16 0z" fill="rgba(46, 195, 243, 0.27)"></path><path d="M816 496L816 432L1072 176" stroke-width="5.33" stroke="rgba(46, 195, 243, 0.27)"></path><path d="M808 496 a8 8 0 1 0 16 0 a8 8 0 1 0 -16 0zM1064 176 a8 8 0 1 0 16 0 a8 8 0 1 0 -16 0z" fill="rgba(46, 195, 243, 0.27)"></path><path d="M240 1328L336 1328L368 1360" stroke-width="5.33" stroke="rgba(46, 195, 243, 0.27)"></path><path d="M232 1328 a8 8 0 1 0 16 0 a8 8 0 1 0 -16 0zM360 1360 a8 8 0 1 0 16 0 a8 8 0 1 0 -16 0z" fill="rgba(46, 195, 243, 0.27)"></path><path d="M656 240L720 240L816 336" stroke-width="5.33" stroke="rgba(46, 195, 243, 0.27)"></path><path d="M648 240 a8 8 0 1 0 16 0 a8 8 0 1 0 -16 0zM808 336 a8 8 0 1 0 16 0 a8 8 0 1 0 -16 0z" fill="rgba(46, 195, 243, 0.27)"></path><path d="M1360 1200L1424 1136L1456 1136L1552 1232L1584 1232" stroke-width="5.33" stroke="rgba(46, 195, 243, 0.27)"></path><path d="M1352 1200 a8 8 0 1 0 16 0 a8 8 0 1 0 -16 0zM1576 1232 a8 8 0 1 0 16 0 a8 8 0 1 0 -16 0z" fill="rgba(46, 195, 243, 0.27)"></path><path d="M112 144L48 80L16 80" stroke-width="5.33" stroke="rgba(46, 195, 243, 0.27)"></path><path d="M104 144 a8 8 0 1 0 16 0 a8 8 0 1 0 -16 0zM8 80 a8 8 0 1 0 16 0 a8 8 0 1 0 -16 0z" fill="rgba(46, 195, 243, 0.27)"></path><path d="M1104 368L1040 432" stroke-width="5.33" stroke="rgba(46, 195, 243, 0.27)"></path><path d="M1096 368 a8 8 0 1 0 16 0 a8 8 0 1 0 -16 0zM1032 432 a8 8 0 1 0 16 0 a8 8 0 1 0 -16 0z" fill="rgba(46, 195, 243, 0.27)"></path><path d="M16 432L112 336L240 336" stroke-width="5.33" stroke="rgba(46, 195, 243, 0.27)"></path><path d="M8 432 a8 8 0 1 0 16 0 a8 8 0 1 0 -16 0zM232 336 a8 8 0 1 0 16 0 a8 8 0 1 0 -16 0z" fill="rgba(46, 195, 243, 0.27)"></path><path d="M752 1360L496 1360L464 1392L432 1392" stroke-width="5.33" stroke="rgba(46, 195, 243, 0.27)"></path><path d="M744 1360 a8 8 0 1 0 16 0 a8 8 0 1 0 -16 0zM424 1392 a8 8 0 1 0 16 0 a8 8 0 1 0 -16 0z" fill="rgba(46, 195, 243, 0.27)"></path><path d="M1072 1296L1232 1136L1232 1104" stroke-width="5.33" stroke="rgba(46, 195, 243, 0.27)"></path><path d="M1064 1296 a8 8 0 1 0 16 0 a8 8 0 1 0 -16 0zM1224 1104 a8 8 0 1 0 16 0 a8 8 0 1 0 -16 0z" fill="rgba(46, 195, 243, 0.27)"></path><path d="M1136 656L1136 624L976 464" stroke-width="5.33" stroke="rgba(46, 195, 243, 0.27)"></path><path d="M1128 656 a8 8 0 1 0 16 0 a8 8 0 1 0 -16 0zM968 464 a8 8 0 1 0 16 0 a8 8 0 1 0 -16 0z" fill="rgba(46, 195, 243, 0.27)"></path><path d="M1232 528L1232 368L1168 304L1168 112L1232 48L1264 48" stroke-width="5.33" stroke="rgba(46, 195, 243, 0.27)"></path><path d="M1224 528 a8 8 0 1 0 16 0 a8 8 0 1 0 -16 0zM1256 48 a8 8 0 1 0 16 0 a8 8 0 1 0 -16 0z" fill="rgba(46, 195, 243, 0.27)"></path><path d="M656 1296L624 1328L464 1328L432 1360" stroke-width="5.33" stroke="rgba(46, 195, 243, 0.27)"></path><path d="M648 1296 a8 8 0 1 0 16 0 a8 8 0 1 0 -16 0zM424 1360 a8 8 0 1 0 16 0 a8 8 0 1 0 -16 0z" fill="rgba(46, 195, 243, 0.27)"></path><path d="M784 48L816 16L912 16" stroke-width="5.33" stroke="rgba(46, 195, 243, 0.27)"></path><path d="M776 48 a8 8 0 1 0 16 0 a8 8 0 1 0 -16 0zM904 16 a8 8 0 1 0 16 0 a8 8 0 1 0 -16 0z" fill="rgba(46, 195, 243, 0.27)"></path><path d="M752 1136L688 1136" stroke-width="5.33" stroke="rgba(46, 195, 243, 0.27)"></path><path d="M744 1136 a8 8 0 1 0 16 0 a8 8 0 1 0 -16 0zM680 1136 a8 8 0 1 0 16 0 a8 8 0 1 0 -16 0z" fill="rgba(46, 195, 243, 0.27)"></path><path d="M944 1232L944 1296" stroke-width="5.33" stroke="rgba(46, 195, 243, 0.27)"></path><path d="M936 1232 a8 8 0 1 0 16 0 a8 8 0 1 0 -16 0zM936 1296 a8 8 0 1 0 16 0 a8 8 0 1 0 -16 0z" fill="rgba(46, 195, 243, 0.27)"></path><path d="M368 560L336 528L336 496L400 432L432 432L528 528" stroke-width="5.33" stroke="rgba(46, 195, 243, 0.27)"></path><path d="M360 560 a8 8 0 1 0 16 0 a8 8 0 1 0 -16 0zM520 528 a8 8 0 1 0 16 0 a8 8 0 1 0 -16 0z" fill="rgba(46, 195, 243, 0.27)"></path><path d="M944 816L944 688" stroke-width="5.33" stroke="rgba(46, 195, 243, 0.27)"></path><path d="M936 816 a8 8 0 1 0 16 0 a8 8 0 1 0 -16 0zM936 688 a8 8 0 1 0 16 0 a8 8 0 1 0 -16 0z" fill="rgba(46, 195, 243, 0.27)"></path><path d="M240 208L240 176L208 144L208 112L272 48L592 48" stroke-width="5.33" stroke="rgba(46, 195, 243, 0.27)"></path><path d="M232 208 a8 8 0 1 0 16 0 a8 8 0 1 0 -16 0zM584 48 a8 8 0 1 0 16 0 a8 8 0 1 0 -16 0z" fill="rgba(46, 195, 243, 0.27)"></path><path d="M1168 816L1168 784L1136 752" stroke-width="5.33" stroke="rgba(46, 195, 243, 0.27)"></path><path d="M1160 816 a8 8 0 1 0 16 0 a8 8 0 1 0 -16 0zM1128 752 a8 8 0 1 0 16 0 a8 8 0 1 0 -16 0z" fill="rgba(46, 195, 243, 0.27)"></path><path d="M592 1072L688 1072" stroke-width="5.33" stroke="rgba(46, 195, 243, 0.27)"></path><path d="M584 1072 a8 8 0 1 0 16 0 a8 8 0 1 0 -16 0zM680 1072 a8 8 0 1 0 16 0 a8 8 0 1 0 -16 0z" fill="rgba(46, 195, 243, 0.27)"></path><path d="M816 816L816 752L784 720L752 720" stroke-width="5.33" stroke="rgba(46, 195, 243, 0.27)"></path><path d="M808 816 a8 8 0 1 0 16 0 a8 8 0 1 0 -16 0zM744 720 a8 8 0 1 0 16 0 a8 8 0 1 0 -16 0z" fill="rgba(46, 195, 243, 0.27)"></path><path d="M368 784L368 816L432 880L432 912L336 1008" stroke-width="5.33" stroke="rgba(46, 195, 243, 0.27)"></path><path d="M360 784 a8 8 0 1 0 16 0 a8 8 0 1 0 -16 0zM328 1008 a8 8 0 1 0 16 0 a8 8 0 1 0 -16 0z" fill="rgba(46, 195, 243, 0.27)"></path><path d="M976 1008L976 1104" stroke-width="5.33" stroke="rgba(46, 195, 243, 0.27)"></path><path d="M968 1008 a8 8 0 1 0 16 0 a8 8 0 1 0 -16 0zM968 1104 a8 8 0 1 0 16 0 a8 8 0 1 0 -16 0z" fill="rgba(46, 195, 243, 0.27)"></path><path d="M304 1232L176 1232L144 1264L144 1296L176 1328L208 1328L272 1264L304 1264L336 1296" stroke-width="5.33" stroke="rgba(46, 195, 243, 0.27)"></path><path d="M296 1232 a8 8 0 1 0 16 0 a8 8 0 1 0 -16 0zM328 1296 a8 8 0 1 0 16 0 a8 8 0 1 0 -16 0z" fill="rgba(46, 195, 243, 0.27)"></path><path d="M80 304L144 240L208 240L240 272L240 304" stroke-width="5.33" stroke="rgba(46, 195, 243, 0.27)"></path><path d="M72 304 a8 8 0 1 0 16 0 a8 8 0 1 0 -16 0zM232 304 a8 8 0 1 0 16 0 a8 8 0 1 0 -16 0z" fill="rgba(46, 195, 243, 0.27)"></path><path d="M688 1040L432 1040" stroke-width="5.33" stroke="rgba(46, 195, 243, 0.27)"></path><path d="M680 1040 a8 8 0 1 0 16 0 a8 8 0 1 0 -16 0zM424 1040 a8 8 0 1 0 16 0 a8 8 0 1 0 -16 0z" fill="rgba(46, 195, 243, 0.27)"></path><path d="M496 1232L496 1200L528 1168L560 1168" stroke-width="5.33" stroke="rgba(46, 195, 243, 0.27)"></path><path d="M488 1232 a8 8 0 1 0 16 0 a8 8 0 1 0 -16 0zM552 1168 a8 8 0 1 0 16 0 a8 8 0 1 0 -16 0z" fill="rgba(46, 195, 243, 0.27)"></path><path d="M528 784L528 720" stroke-width="5.33" stroke="rgba(46, 195, 243, 0.27)"></path><path d="M520 784 a8 8 0 1 0 16 0 a8 8 0 1 0 -16 0zM520 720 a8 8 0 1 0 16 0 a8 8 0 1 0 -16 0z" fill="rgba(46, 195, 243, 0.27)"></path><path d="M272 1200L304 1168L304 1104L208 1008" stroke-width="5.33" stroke="rgba(46, 195, 243, 0.27)"></path><path d="M264 1200 a8 8 0 1 0 16 0 a8 8 0 1 0 -16 0zM200 1008 a8 8 0 1 0 16 0 a8 8 0 1 0 -16 0z" fill="rgba(46, 195, 243, 0.27)"></path><path d="M1040 400L1104 336L1104 272" stroke-width="5.33" stroke="rgba(46, 195, 243, 0.27)"></path><path d="M1032 400 a8 8 0 1 0 16 0 a8 8 0 1 0 -16 0zM1096 272 a8 8 0 1 0 16 0 a8 8 0 1 0 -16 0z" fill="rgba(46, 195, 243, 0.27)"></path><path d="M1552 1392L1552 1360L1584 1328L1584 1296" stroke-width="5.33" stroke="rgba(46, 195, 243, 0.27)"></path><path d="M1544 1392 a8 8 0 1 0 16 0 a8 8 0 1 0 -16 0zM1576 1296 a8 8 0 1 0 16 0 a8 8 0 1 0 -16 0z" fill="rgba(46, 195, 243, 0.27)"></path><path d="M1584 1168L1552 1136L1488 1136" stroke-width="5.33" stroke="rgba(46, 195, 243, 0.27)"></path><path d="M1576 1168 a8 8 0 1 0 16 0 a8 8 0 1 0 -16 0zM1480 1136 a8 8 0 1 0 16 0 a8 8 0 1 0 -16 0z" fill="rgba(46, 195, 243, 0.27)"></path><path d="M1200 304L1200 240L1232 208L1232 80" stroke-width="5.33" stroke="rgba(46, 195, 243, 0.27)"></path><path d="M1192 304 a8 8 0 1 0 16 0 a8 8 0 1 0 -16 0zM1224 80 a8 8 0 1 0 16 0 a8 8 0 1 0 -16 0z" fill="rgba(46, 195, 243, 0.27)"></path><path d="M240 1136L176 1072" stroke-width="5.33" stroke="rgba(46, 195, 243, 0.27)"></path><path d="M232 1136 a8 8 0 1 0 16 0 a8 8 0 1 0 -16 0zM168 1072 a8 8 0 1 0 16 0 a8 8 0 1 0 -16 0z" fill="rgba(46, 195, 243, 0.27)"></path><path d="M1232 1200L1200 1200L1072 1328L1040 1328" stroke-width="5.33" stroke="rgba(46, 195, 243, 0.27)"></path><path d="M1224 1200 a8 8 0 1 0 16 0 a8 8 0 1 0 -16 0zM1032 1328 a8 8 0 1 0 16 0 a8 8 0 1 0 -16 0z" fill="rgba(46, 195, 243, 0.27)"></path><path d="M624 1264L592 1296L496 1296" stroke-width="5.33" stroke="rgba(46, 195, 243, 0.27)"></path><path d="M616 1264 a8 8 0 1 0 16 0 a8 8 0 1 0 -16 0zM488 1296 a8 8 0 1 0 16 0 a8 8 0 1 0 -16 0z" fill="rgba(46, 195, 243, 0.27)"></path><path d="M1392 720L1200 528L1200 368" stroke-width="5.33" stroke="rgba(46, 195, 243, 0.27)"></path><path d="M1384 720 a8 8 0 1 0 16 0 a8 8 0 1 0 -16 0zM1192 368 a8 8 0 1 0 16 0 a8 8 0 1 0 -16 0z" fill="rgba(46, 195, 243, 0.27)"></path><path d="M1168 528L1168 560L1328 720L1360 720" stroke-width="5.33" stroke="rgba(46, 195, 243, 0.27)"></path><path d="M1160 528 a8 8 0 1 0 16 0 a8 8 0 1 0 -16 0zM1352 720 a8 8 0 1 0 16 0 a8 8 0 1 0 -16 0z" fill="rgba(46, 195, 243, 0.27)"></path><path d="M1328 1296L1360 1296L1424 1360" stroke-width="5.33" stroke="rgba(46, 195, 243, 0.27)"></path><path d="M1320 1296 a8 8 0 1 0 16 0 a8 8 0 1 0 -16 0zM1416 1360 a8 8 0 1 0 16 0 a8 8 0 1 0 -16 0z" fill="rgba(46, 195, 243, 0.27)"></path><path d="M336 80L368 112L368 176L304 240L304 336" stroke-width="5.33" stroke="rgba(46, 195, 243, 0.27)"></path><path d="M328 80 a8 8 0 1 0 16 0 a8 8 0 1 0 -16 0zM296 336 a8 8 0 1 0 16 0 a8 8 0 1 0 -16 0z" fill="rgba(46, 195, 243, 0.27)"></path><path d="M784 944L816 912L880 912L912 944L1200 944" stroke-width="5.33" stroke="rgba(46, 195, 243, 0.27)"></path><path d="M776 944 a8 8 0 1 0 16 0 a8 8 0 1 0 -16 0zM1192 944 a8 8 0 1 0 16 0 a8 8 0 1 0 -16 0z" fill="rgba(46, 195, 243, 0.27)"></path><path d="M1360 496L1360 432" stroke-width="5.33" stroke="rgba(46, 195, 243, 0.27)"></path><path d="M1352 496 a8 8 0 1 0 16 0 a8 8 0 1 0 -16 0zM1352 432 a8 8 0 1 0 16 0 a8 8 0 1 0 -16 0z" fill="rgba(46, 195, 243, 0.27)"></path><path d="M400 752L368 720L304 720" stroke-width="5.33" stroke="rgba(46, 195, 243, 0.27)"></path><path d="M392 752 a8 8 0 1 0 16 0 a8 8 0 1 0 -16 0zM296 720 a8 8 0 1 0 16 0 a8 8 0 1 0 -16 0z" fill="rgba(46, 195, 243, 0.27)"></path><path d="M752 1264L784 1232L784 1136L848 1072L880 1072L944 1136L944 1200L848 1296L688 1296" stroke-width="5.33" stroke="rgba(46, 195, 243, 0.27)"></path><path d="M744 1264 a8 8 0 1 0 16 0 a8 8 0 1 0 -16 0zM680 1296 a8 8 0 1 0 16 0 a8 8 0 1 0 -16 0z" fill="rgba(46, 195, 243, 0.27)"></path><path d="M1456 688L1456 592L1552 496L1552 464" stroke-width="5.33" stroke="rgba(46, 195, 243, 0.27)"></path><path d="M1448 688 a8 8 0 1 0 16 0 a8 8 0 1 0 -16 0zM1544 464 a8 8 0 1 0 16 0 a8 8 0 1 0 -16 0z" fill="rgba(46, 195, 243, 0.27)"></path><path d="M944 496L848 592" stroke-width="5.33" stroke="rgba(46, 195, 243, 0.27)"></path><path d="M936 496 a8 8 0 1 0 16 0 a8 8 0 1 0 -16 0zM840 592 a8 8 0 1 0 16 0 a8 8 0 1 0 -16 0z" fill="rgba(46, 195, 243, 0.27)"></path><path d="M816 80L688 80" stroke-width="5.33" stroke="rgba(46, 195, 243, 0.27)"></path><path d="M808 80 a8 8 0 1 0 16 0 a8 8 0 1 0 -16 0zM680 80 a8 8 0 1 0 16 0 a8 8 0 1 0 -16 0z" fill="rgba(46, 195, 243, 0.27)"></path><path d="M912 1360L944 1392L976 1392" stroke-width="5.33" stroke="rgba(46, 195, 243, 0.27)"></path><path d="M904 1360 a8 8 0 1 0 16 0 a8 8 0 1 0 -16 0zM968 1392 a8 8 0 1 0 16 0 a8 8 0 1 0 -16 0z" fill="rgba(46, 195, 243, 0.27)"></path><path d="M1552 240L1552 112" stroke-width="5.33" stroke="rgba(46, 195, 243, 0.27)"></path><path d="M1544 240 a8 8 0 1 0 16 0 a8 8 0 1 0 -16 0zM1544 112 a8 8 0 1 0 16 0 a8 8 0 1 0 -16 0z" fill="rgba(46, 195, 243, 0.27)"></path><path d="M496 80L592 80" stroke-width="5.33" stroke="rgba(46, 195, 243, 0.27)"></path><path d="M488 80 a8 8 0 1 0 16 0 a8 8 0 1 0 -16 0zM584 80 a8 8 0 1 0 16 0 a8 8 0 1 0 -16 0z" fill="rgba(46, 195, 243, 0.27)"></path><path d="M304 176L240 112" stroke-width="5.33" stroke="rgba(46, 195, 243, 0.27)"></path><path d="M296 176 a8 8 0 1 0 16 0 a8 8 0 1 0 -16 0zM232 112 a8 8 0 1 0 16 0 a8 8 0 1 0 -16 0z" fill="rgba(46, 195, 243, 0.27)"></path><path d="M1424 1296L1424 1168" stroke-width="5.33" stroke="rgba(46, 195, 243, 0.27)"></path><path d="M1416 1296 a8 8 0 1 0 16 0 a8 8 0 1 0 -16 0zM1416 1168 a8 8 0 1 0 16 0 a8 8 0 1 0 -16 0z" fill="rgba(46, 195, 243, 0.27)"></path><path d="M464 784L464 848" stroke-width="5.33" stroke="rgba(46, 195, 243, 0.27)"></path><path d="M456 784 a8 8 0 1 0 16 0 a8 8 0 1 0 -16 0zM456 848 a8 8 0 1 0 16 0 a8 8 0 1 0 -16 0z" fill="rgba(46, 195, 243, 0.27)"></path><path d="M1104 16L1040 16" stroke-width="5.33" stroke="rgba(46, 195, 243, 0.27)"></path><path d="M1096 16 a8 8 0 1 0 16 0 a8 8 0 1 0 -16 0zM1032 16 a8 8 0 1 0 16 0 a8 8 0 1 0 -16 0z" fill="rgba(46, 195, 243, 0.27)"></path><path d="M1488 1264L1456 1232L1456 1168" stroke-width="5.33" stroke="rgba(46, 195, 243, 0.27)"></path><path d="M1480 1264 a8 8 0 1 0 16 0 a8 8 0 1 0 -16 0zM1448 1168 a8 8 0 1 0 16 0 a8 8 0 1 0 -16 0z" fill="rgba(46, 195, 243, 0.27)"></path><path d="M80 176L80 272L16 336L16 400" stroke-width="5.33" stroke="rgba(46, 195, 243, 0.27)"></path><path d="M72 176 a8 8 0 1 0 16 0 a8 8 0 1 0 -16 0zM8 400 a8 8 0 1 0 16 0 a8 8 0 1 0 -16 0z" fill="rgba(46, 195, 243, 0.27)"></path><path d="M240 1072L240 1104L272 1136L272 1168L240 1200L176 1200" stroke-width="5.33" stroke="rgba(46, 195, 243, 0.27)"></path><path d="M232 1072 a8 8 0 1 0 16 0 a8 8 0 1 0 -16 0zM168 1200 a8 8 0 1 0 16 0 a8 8 0 1 0 -16 0z" fill="rgba(46, 195, 243, 0.27)"></path><path d="M176 16L80 16" stroke-width="5.33" stroke="rgba(46, 195, 243, 0.27)"></path><path d="M168 16 a8 8 0 1 0 16 0 a8 8 0 1 0 -16 0zM72 16 a8 8 0 1 0 16 0 a8 8 0 1 0 -16 0z" fill="rgba(46, 195, 243, 0.27)"></path><path d="M1520 848L1584 912L1584 976" stroke-width="5.33" stroke="rgba(46, 195, 243, 0.27)"></path><path d="M1512 848 a8 8 0 1 0 16 0 a8 8 0 1 0 -16 0zM1576 976 a8 8 0 1 0 16 0 a8 8 0 1 0 -16 0z" fill="rgba(46, 195, 243, 0.27)"></path><path d="M464 1104L496 1072L560 1072L592 1104L656 1104" stroke-width="5.33" stroke="rgba(46, 195, 243, 0.27)"></path><path d="M456 1104 a8 8 0 1 0 16 0 a8 8 0 1 0 -16 0zM648 1104 a8 8 0 1 0 16 0 a8 8 0 1 0 -16 0z" fill="rgba(46, 195, 243, 0.27)"></path><path d="M1008 976L1104 976L1200 1072" stroke-width="5.33" stroke="rgba(46, 195, 243, 0.27)"></path><path d="M1000 976 a8 8 0 1 0 16 0 a8 8 0 1 0 -16 0zM1192 1072 a8 8 0 1 0 16 0 a8 8 0 1 0 -16 0z" fill="rgba(46, 195, 243, 0.27)"></path><path d="M1488 848L1552 784L1584 784" stroke-width="5.33" stroke="rgba(46, 195, 243, 0.27)"></path><path d="M1480 848 a8 8 0 1 0 16 0 a8 8 0 1 0 -16 0zM1576 784 a8 8 0 1 0 16 0 a8 8 0 1 0 -16 0z" fill="rgba(46, 195, 243, 0.27)"></path><path d="M304 624L272 624L240 592L240 560" stroke-width="5.33" stroke="rgba(46, 195, 243, 0.27)"></path><path d="M296 624 a8 8 0 1 0 16 0 a8 8 0 1 0 -16 0zM232 560 a8 8 0 1 0 16 0 a8 8 0 1 0 -16 0z" fill="rgba(46, 195, 243, 0.27)"></path><path d="M848 1392L816 1360L784 1360L752 1392L496 1392" stroke-width="5.33" stroke="rgba(46, 195, 243, 0.27)"></path><path d="M840 1392 a8 8 0 1 0 16 0 a8 8 0 1 0 -16 0zM488 1392 a8 8 0 1 0 16 0 a8 8 0 1 0 -16 0z" fill="rgba(46, 195, 243, 0.27)"></path><path d="M1040 1072L1008 1040L1008 1008" stroke-width="5.33" stroke="rgba(46, 195, 243, 0.27)"></path><path d="M1032 1072 a8 8 0 1 0 16 0 a8 8 0 1 0 -16 0zM1000 1008 a8 8 0 1 0 16 0 a8 8 0 1 0 -16 0z" fill="rgba(46, 195, 243, 0.27)"></path><path d="M240 1264L176 1264" stroke-width="5.33" stroke="rgba(46, 195, 243, 0.27)"></path><path d="M232 1264 a8 8 0 1 0 16 0 a8 8 0 1 0 -16 0zM168 1264 a8 8 0 1 0 16 0 a8 8 0 1 0 -16 0z" fill="rgba(46, 195, 243, 0.27)"></path><path d="M112 720L240 720L272 752" stroke-width="5.33" stroke="rgba(46, 195, 243, 0.27)"></path><path d="M104 720 a8 8 0 1 0 16 0 a8 8 0 1 0 -16 0zM264 752 a8 8 0 1 0 16 0 a8 8 0 1 0 -16 0z" fill="rgba(46, 195, 243, 0.27)"></path><path d="M528 1008L528 944L592 880" stroke-width="5.33" stroke="rgba(46, 195, 243, 0.27)"></path><path d="M520 1008 a8 8 0 1 0 16 0 a8 8 0 1 0 -16 0zM584 880 a8 8 0 1 0 16 0 a8 8 0 1 0 -16 0z" fill="rgba(46, 195, 243, 0.27)"></path><path d="M48 1104L112 1040L112 944" stroke-width="5.33" stroke="rgba(46, 195, 243, 0.27)"></path><path d="M40 1104 a8 8 0 1 0 16 0 a8 8 0 1 0 -16 0zM104 944 a8 8 0 1 0 16 0 a8 8 0 1 0 -16 0z" fill="rgba(46, 195, 243, 0.27)"></path><path d="M240 912L208 880L176 880L144 912" stroke-width="5.33" stroke="rgba(46, 195, 243, 0.27)"></path><path d="M232 912 a8 8 0 1 0 16 0 a8 8 0 1 0 -16 0zM136 912 a8 8 0 1 0 16 0 a8 8 0 1 0 -16 0z" fill="rgba(46, 195, 243, 0.27)"></path><path d="M1424 1072L1360 1008L1296 1008" stroke-width="5.33" stroke="rgba(46, 195, 243, 0.27)"></path><path d="M1416 1072 a8 8 0 1 0 16 0 a8 8 0 1 0 -16 0zM1288 1008 a8 8 0 1 0 16 0 a8 8 0 1 0 -16 0z" fill="rgba(46, 195, 243, 0.27)"></path><path d="M48 688L16 720L16 752" stroke-width="5.33" stroke="rgba(46, 195, 243, 0.27)"></path><path d="M40 688 a8 8 0 1 0 16 0 a8 8 0 1 0 -16 0zM8 752 a8 8 0 1 0 16 0 a8 8 0 1 0 -16 0z" fill="rgba(46, 195, 243, 0.27)"></path><path d="M880 720L880 752L912 784" stroke-width="5.33" stroke="rgba(46, 195, 243, 0.27)"></path><path d="M872 720 a8 8 0 1 0 16 0 a8 8 0 1 0 -16 0zM904 784 a8 8 0 1 0 16 0 a8 8 0 1 0 -16 0z" fill="rgba(46, 195, 243, 0.27)"></path><path d="M1520 112L1520 144L1456 208L1456 240L1488 272L1552 272" stroke-width="5.33" stroke="rgba(46, 195, 243, 0.27)"></path><path d="M1512 112 a8 8 0 1 0 16 0 a8 8 0 1 0 -16 0zM1544 272 a8 8 0 1 0 16 0 a8 8 0 1 0 -16 0z" fill="rgba(46, 195, 243, 0.27)"></path><path d="M144 688L144 624L112 592" stroke-width="5.33" stroke="rgba(46, 195, 243, 0.27)"></path><path d="M136 688 a8 8 0 1 0 16 0 a8 8 0 1 0 -16 0zM104 592 a8 8 0 1 0 16 0 a8 8 0 1 0 -16 0z" fill="rgba(46, 195, 243, 0.27)"></path><path d="M1232 1232L1136 1328L1104 1328" stroke-width="5.33" stroke="rgba(46, 195, 243, 0.27)"></path><path d="M1224 1232 a8 8 0 1 0 16 0 a8 8 0 1 0 -16 0zM1096 1328 a8 8 0 1 0 16 0 a8 8 0 1 0 -16 0z" fill="rgba(46, 195, 243, 0.27)"></path><path d="M816 144L848 112L848 80L816 48" stroke-width="5.33" stroke="rgba(46, 195, 243, 0.27)"></path><path d="M808 144 a8 8 0 1 0 16 0 a8 8 0 1 0 -16 0zM808 48 a8 8 0 1 0 16 0 a8 8 0 1 0 -16 0z" fill="rgba(46, 195, 243, 0.27)"></path><path d="M1456 1072L1520 1008" stroke-width="5.33" stroke="rgba(46, 195, 243, 0.27)"></path><path d="M1448 1072 a8 8 0 1 0 16 0 a8 8 0 1 0 -16 0zM1512 1008 a8 8 0 1 0 16 0 a8 8 0 1 0 -16 0z" fill="rgba(46, 195, 243, 0.27)"></path><path d="M48 240L48 272L16 304" stroke-width="5.33" stroke="rgba(46, 195, 243, 0.27)"></path><path d="M40 240 a8 8 0 1 0 16 0 a8 8 0 1 0 -16 0zM8 304 a8 8 0 1 0 16 0 a8 8 0 1 0 -16 0z" fill="rgba(46, 195, 243, 0.27)"></path><path d="M1424 816L1552 944L1552 976" stroke-width="5.33" stroke="rgba(46, 195, 243, 0.27)"></path><path d="M1416 816 a8 8 0 1 0 16 0 a8 8 0 1 0 -16 0zM1544 976 a8 8 0 1 0 16 0 a8 8 0 1 0 -16 0z" fill="rgba(46, 195, 243, 0.27)"></path><path d="M1392 112L1456 112L1488 80" stroke-width="5.33" stroke="rgba(46, 195, 243, 0.27)"></path><path d="M1384 112 a8 8 0 1 0 16 0 a8 8 0 1 0 -16 0zM1480 80 a8 8 0 1 0 16 0 a8 8 0 1 0 -16 0z" fill="rgba(46, 195, 243, 0.27)"></path><path d="M592 944L624 976L624 1008" stroke-width="5.33" stroke="rgba(46, 195, 243, 0.27)"></path><path d="M584 944 a8 8 0 1 0 16 0 a8 8 0 1 0 -16 0zM616 1008 a8 8 0 1 0 16 0 a8 8 0 1 0 -16 0z" fill="rgba(46, 195, 243, 0.27)"></path><path d="M16 496L16 560" stroke-width="5.33" stroke="rgba(46, 195, 243, 0.27)"></path><path d="M8 496 a8 8 0 1 0 16 0 a8 8 0 1 0 -16 0zM8 560 a8 8 0 1 0 16 0 a8 8 0 1 0 -16 0z" fill="rgba(46, 195, 243, 0.27)"></path><path d="M688 400L720 368L784 368" stroke-width="5.33" stroke="rgba(46, 195, 243, 0.27)"></path><path d="M680 400 a8 8 0 1 0 16 0 a8 8 0 1 0 -16 0zM776 368 a8 8 0 1 0 16 0 a8 8 0 1 0 -16 0z" fill="rgba(46, 195, 243, 0.27)"></path><path d="M464 560L400 560L368 528L368 496L400 464L432 464L496 528L496 560" stroke-width="5.33" stroke="rgba(46, 195, 243, 0.27)"></path><path d="M456 560 a8 8 0 1 0 16 0 a8 8 0 1 0 -16 0zM488 560 a8 8 0 1 0 16 0 a8 8 0 1 0 -16 0z" fill="rgba(46, 195, 243, 0.27)"></path><path d="M752 816L784 848L976 848L1072 752L1072 720L1040 688L1008 688L976 720L976 816" stroke-width="5.33" stroke="rgba(46, 195, 243, 0.27)"></path><path d="M744 816 a8 8 0 1 0 16 0 a8 8 0 1 0 -16 0zM968 816 a8 8 0 1 0 16 0 a8 8 0 1 0 -16 0z" fill="rgba(46, 195, 243, 0.27)"></path><path d="M464 1200L464 1264" stroke-width="5.33" stroke="rgba(46, 195, 243, 0.27)"></path><path d="M456 1200 a8 8 0 1 0 16 0 a8 8 0 1 0 -16 0zM456 1264 a8 8 0 1 0 16 0 a8 8 0 1 0 -16 0z" fill="rgba(46, 195, 243, 0.27)"></path><path d="M16 1072L16 1136" stroke-width="5.33" stroke="rgba(46, 195, 243, 0.27)"></path><path d="M8 1072 a8 8 0 1 0 16 0 a8 8 0 1 0 -16 0zM8 1136 a8 8 0 1 0 16 0 a8 8 0 1 0 -16 0z" fill="rgba(46, 195, 243, 0.27)"></path><path d="M720 400L656 464L624 464L592 432" stroke-width="5.33" stroke="rgba(46, 195, 243, 0.27)"></path><path d="M712 400 a8 8 0 1 0 16 0 a8 8 0 1 0 -16 0zM584 432 a8 8 0 1 0 16 0 a8 8 0 1 0 -16 0z" fill="rgba(46, 195, 243, 0.27)"></path><path d="M1488 368L1456 336L1456 304" stroke-width="5.33" stroke="rgba(46, 195, 243, 0.27)"></path><path d="M1480 368 a8 8 0 1 0 16 0 a8 8 0 1 0 -16 0zM1448 304 a8 8 0 1 0 16 0 a8 8 0 1 0 -16 0z" fill="rgba(46, 195, 243, 0.27)"></path><path d="M400 720L432 720L528 816" stroke-width="5.33" stroke="rgba(46, 195, 243, 0.27)"></path><path d="M392 720 a8 8 0 1 0 16 0 a8 8 0 1 0 -16 0zM520 816 a8 8 0 1 0 16 0 a8 8 0 1 0 -16 0z" fill="rgba(46, 195, 243, 0.27)"></path><path d="M592 368L624 336L624 304L592 272L560 272L528 304L528 336L560 368" stroke-width="5.33" stroke="rgba(46, 195, 243, 0.27)"></path><path d="M584 368 a8 8 0 1 0 16 0 a8 8 0 1 0 -16 0zM552 368 a8 8 0 1 0 16 0 a8 8 0 1 0 -16 0z" fill="rgba(46, 195, 243, 0.27)"></path><path d="M816 1040L752 976L752 848" stroke-width="5.33" stroke="rgba(46, 195, 243, 0.27)"></path><path d="M808 1040 a8 8 0 1 0 16 0 a8 8 0 1 0 -16 0zM744 848 a8 8 0 1 0 16 0 a8 8 0 1 0 -16 0z" fill="rgba(46, 195, 243, 0.27)"></path><path d="M112 688L112 624" stroke-width="5.33" stroke="rgba(46, 195, 243, 0.27)"></path><path d="M104 688 a8 8 0 1 0 16 0 a8 8 0 1 0 -16 0zM104 624 a8 8 0 1 0 16 0 a8 8 0 1 0 -16 0z" fill="rgba(46, 195, 243, 0.27)"></path><path d="M816 1168L816 1264" stroke-width="5.33" stroke="rgba(46, 195, 243, 0.27)"></path><path d="M808 1168 a8 8 0 1 0 16 0 a8 8 0 1 0 -16 0zM808 1264 a8 8 0 1 0 16 0 a8 8 0 1 0 -16 0z" fill="rgba(46, 195, 243, 0.27)"></path><path d="M1392 1008L1456 944" stroke-width="5.33" stroke="rgba(46, 195, 243, 0.27)"></path><path d="M1384 1008 a8 8 0 1 0 16 0 a8 8 0 1 0 -16 0zM1448 944 a8 8 0 1 0 16 0 a8 8 0 1 0 -16 0z" fill="rgba(46, 195, 243, 0.27)"></path><path d="M720 336L624 432" stroke-width="5.33" stroke="rgba(46, 195, 243, 0.27)"></path><path d="M712 336 a8 8 0 1 0 16 0 a8 8 0 1 0 -16 0zM616 432 a8 8 0 1 0 16 0 a8 8 0 1 0 -16 0z" fill="rgba(46, 195, 243, 0.27)"></path><path d="M1072 240L1040 240L848 432L848 496" stroke-width="5.33" stroke="rgba(46, 195, 243, 0.27)"></path><path d="M1064 240 a8 8 0 1 0 16 0 a8 8 0 1 0 -16 0zM840 496 a8 8 0 1 0 16 0 a8 8 0 1 0 -16 0z" fill="rgba(46, 195, 243, 0.27)"></path><path d="M1584 16L1520 16" stroke-width="5.33" stroke="rgba(46, 195, 243, 0.27)"></path><path d="M1576 16 a8 8 0 1 0 16 0 a8 8 0 1 0 -16 0zM1512 16 a8 8 0 1 0 16 0 a8 8 0 1 0 -16 0z" fill="rgba(46, 195, 243, 0.27)"></path><path d="M336 784L336 976" stroke-width="5.33" stroke="rgba(46, 195, 243, 0.27)"></path><path d="M328 784 a8 8 0 1 0 16 0 a8 8 0 1 0 -16 0zM328 976 a8 8 0 1 0 16 0 a8 8 0 1 0 -16 0z" fill="rgba(46, 195, 243, 0.27)"></path><path d="M528 176L432 80L368 80" stroke-width="5.33" stroke="rgba(46, 195, 243, 0.27)"></path><path d="M520 176 a8 8 0 1 0 16 0 a8 8 0 1 0 -16 0zM360 80 a8 8 0 1 0 16 0 a8 8 0 1 0 -16 0z" fill="rgba(46, 195, 243, 0.27)"></path><path d="M1392 368L1392 304" stroke-width="5.33" stroke="rgba(46, 195, 243, 0.27)"></path><path d="M1384 368 a8 8 0 1 0 16 0 a8 8 0 1 0 -16 0zM1384 304 a8 8 0 1 0 16 0 a8 8 0 1 0 -16 0z" fill="rgba(46, 195, 243, 0.27)"></path><path d="M400 880L400 912L368 944" stroke-width="5.33" stroke="rgba(46, 195, 243, 0.27)"></path><path d="M392 880 a8 8 0 1 0 16 0 a8 8 0 1 0 -16 0zM360 944 a8 8 0 1 0 16 0 a8 8 0 1 0 -16 0z" fill="rgba(46, 195, 243, 0.27)"></path><path d="M976 144L944 112L912 112L880 144L880 208" stroke-width="5.33" stroke="rgba(46, 195, 243, 0.27)"></path><path d="M968 144 a8 8 0 1 0 16 0 a8 8 0 1 0 -16 0zM872 208 a8 8 0 1 0 16 0 a8 8 0 1 0 -16 0z" fill="rgba(46, 195, 243, 0.27)"></path><path d="M496 112L560 176" stroke-width="5.33" stroke="rgba(46, 195, 243, 0.27)"></path><path d="M488 112 a8 8 0 1 0 16 0 a8 8 0 1 0 -16 0zM552 176 a8 8 0 1 0 16 0 a8 8 0 1 0 -16 0z" fill="rgba(46, 195, 243, 0.27)"></path><path d="M1104 432L1104 496L1136 528" stroke-width="5.33" stroke="rgba(46, 195, 243, 0.27)"></path><path d="M1096 432 a8 8 0 1 0 16 0 a8 8 0 1 0 -16 0zM1128 528 a8 8 0 1 0 16 0 a8 8 0 1 0 -16 0z" fill="rgba(46, 195, 243, 0.27)"></path><path d="M368 240L368 272L336 304" stroke-width="5.33" stroke="rgba(46, 195, 243, 0.27)"></path><path d="M360 240 a8 8 0 1 0 16 0 a8 8 0 1 0 -16 0zM328 304 a8 8 0 1 0 16 0 a8 8 0 1 0 -16 0z" fill="rgba(46, 195, 243, 0.27)"></path><path d="M784 112L784 176" stroke-width="5.33" stroke="rgba(46, 195, 243, 0.27)"></path><path d="M776 112 a8 8 0 1 0 16 0 a8 8 0 1 0 -16 0zM776 176 a8 8 0 1 0 16 0 a8 8 0 1 0 -16 0z" fill="rgba(46, 195, 243, 0.27)"></path><path d="M784 336L752 304L720 304" stroke-width="5.33" stroke="rgba(46, 195, 243, 0.27)"></path><path d="M776 336 a8 8 0 1 0 16 0 a8 8 0 1 0 -16 0zM712 304 a8 8 0 1 0 16 0 a8 8 0 1 0 -16 0z" fill="rgba(46, 195, 243, 0.27)"></path><path d="M1104 1040L1168 1104" stroke-width="5.33" stroke="rgba(46, 195, 243, 0.27)"></path><path d="M1096 1040 a8 8 0 1 0 16 0 a8 8 0 1 0 -16 0zM1160 1104 a8 8 0 1 0 16 0 a8 8 0 1 0 -16 0z" fill="rgba(46, 195, 243, 0.27)"></path><path d="M976 624L912 624" stroke-width="5.33" stroke="rgba(46, 195, 243, 0.27)"></path><path d="M968 624 a8 8 0 1 0 16 0 a8 8 0 1 0 -16 0zM904 624 a8 8 0 1 0 16 0 a8 8 0 1 0 -16 0z" fill="rgba(46, 195, 243, 0.27)"></path><path d="M1168 432L1136 432L1104 400" stroke-width="5.33" stroke="rgba(46, 195, 243, 0.27)"></path><path d="M1160 432 a8 8 0 1 0 16 0 a8 8 0 1 0 -16 0zM1096 400 a8 8 0 1 0 16 0 a8 8 0 1 0 -16 0z" fill="rgba(46, 195, 243, 0.27)"></path><path d="M112 304L208 304" stroke-width="5.33" stroke="rgba(46, 195, 243, 0.27)"></path><path d="M104 304 a8 8 0 1 0 16 0 a8 8 0 1 0 -16 0zM200 304 a8 8 0 1 0 16 0 a8 8 0 1 0 -16 0z" fill="rgba(46, 195, 243, 0.27)"></path><path d="M80 144L48 112L16 112" stroke-width="5.33" stroke="rgba(46, 195, 243, 0.27)"></path><path d="M72 144 a8 8 0 1 0 16 0 a8 8 0 1 0 -16 0zM8 112 a8 8 0 1 0 16 0 a8 8 0 1 0 -16 0z" fill="rgba(46, 195, 243, 0.27)"></path><path d="M1200 1296L1232 1328L1264 1328" stroke-width="5.33" stroke="rgba(46, 195, 243, 0.27)"></path><path d="M1192 1296 a8 8 0 1 0 16 0 a8 8 0 1 0 -16 0zM1256 1328 a8 8 0 1 0 16 0 a8 8 0 1 0 -16 0z" fill="rgba(46, 195, 243, 0.27)"></path><path d="M208 752L176 752L112 816L80 816" stroke-width="5.33" stroke="rgba(46, 195, 243, 0.27)"></path><path d="M200 752 a8 8 0 1 0 16 0 a8 8 0 1 0 -16 0zM72 816 a8 8 0 1 0 16 0 a8 8 0 1 0 -16 0z" fill="rgba(46, 195, 243, 0.27)"></path><path d="M688 912L656 912L624 944" stroke-width="5.33" stroke="rgba(46, 195, 243, 0.27)"></path><path d="M680 912 a8 8 0 1 0 16 0 a8 8 0 1 0 -16 0zM616 944 a8 8 0 1 0 16 0 a8 8 0 1 0 -16 0z" fill="rgba(46, 195, 243, 0.27)"></path><path d="M1552 336L1488 336" stroke-width="5.33" stroke="rgba(46, 195, 243, 0.27)"></path><path d="M1544 336 a8 8 0 1 0 16 0 a8 8 0 1 0 -16 0zM1480 336 a8 8 0 1 0 16 0 a8 8 0 1 0 -16 0z" fill="rgba(46, 195, 243, 0.27)"></path><path d="M176 208L112 208" stroke-width="5.33" stroke="rgba(46, 195, 243, 0.27)"></path><path d="M168 208 a8 8 0 1 0 16 0 a8 8 0 1 0 -16 0zM104 208 a8 8 0 1 0 16 0 a8 8 0 1 0 -16 0z" fill="rgba(46, 195, 243, 0.27)"></path><path d="M1296 272L1296 432" stroke-width="5.33" stroke="rgba(46, 195, 243, 0.27)"></path><path d="M1288 272 a8 8 0 1 0 16 0 a8 8 0 1 0 -16 0zM1288 432 a8 8 0 1 0 16 0 a8 8 0 1 0 -16 0z" fill="rgba(46, 195, 243, 0.27)"></path><path d="M1328 48L1328 80L1360 112" stroke-width="5.33" stroke="rgba(46, 195, 243, 0.27)"></path><path d="M1320 48 a8 8 0 1 0 16 0 a8 8 0 1 0 -16 0zM1352 112 a8 8 0 1 0 16 0 a8 8 0 1 0 -16 0z" fill="rgba(46, 195, 243, 0.27)"></path><path d="M16 208L48 176L48 144" stroke-width="5.33" stroke="rgba(46, 195, 243, 0.27)"></path><path d="M8 208 a8 8 0 1 0 16 0 a8 8 0 1 0 -16 0zM40 144 a8 8 0 1 0 16 0 a8 8 0 1 0 -16 0z" fill="rgba(46, 195, 243, 0.27)"></path><path d="M1040 912L912 912" stroke-width="5.33" stroke="rgba(46, 195, 243, 0.27)"></path><path d="M1032 912 a8 8 0 1 0 16 0 a8 8 0 1 0 -16 0zM904 912 a8 8 0 1 0 16 0 a8 8 0 1 0 -16 0z" fill="rgba(46, 195, 243, 0.27)"></path><path d="M656 1232L560 1232L528 1264" stroke-width="5.33" stroke="rgba(46, 195, 243, 0.27)"></path><path d="M648 1232 a8 8 0 1 0 16 0 a8 8 0 1 0 -16 0zM520 1264 a8 8 0 1 0 16 0 a8 8 0 1 0 -16 0z" fill="rgba(46, 195, 243, 0.27)"></path><path d="M656 1008L656 944" stroke-width="5.33" stroke="rgba(46, 195, 243, 0.27)"></path><path d="M648 1008 a8 8 0 1 0 16 0 a8 8 0 1 0 -16 0zM648 944 a8 8 0 1 0 16 0 a8 8 0 1 0 -16 0z" fill="rgba(46, 195, 243, 0.27)"></path><path d="M688 944L688 1008" stroke-width="5.33" stroke="rgba(46, 195, 243, 0.27)"></path><path d="M680 944 a8 8 0 1 0 16 0 a8 8 0 1 0 -16 0zM680 1008 a8 8 0 1 0 16 0 a8 8 0 1 0 -16 0z" fill="rgba(46, 195, 243, 0.27)"></path><path d="M1456 1328L1456 1264" stroke-width="5.33" stroke="rgba(46, 195, 243, 0.27)"></path><path d="M1448 1328 a8 8 0 1 0 16 0 a8 8 0 1 0 -16 0zM1448 1264 a8 8 0 1 0 16 0 a8 8 0 1 0 -16 0z" fill="rgba(46, 195, 243, 0.27)"></path><path d="M1200 112L1200 208" stroke-width="5.33" stroke="rgba(46, 195, 243, 0.27)"></path><path d="M1192 112 a8 8 0 1 0 16 0 a8 8 0 1 0 -16 0zM1192 208 a8 8 0 1 0 16 0 a8 8 0 1 0 -16 0z" fill="rgba(46, 195, 243, 0.27)"></path><path d="M1456 400L1520 400" stroke-width="5.33" stroke="rgba(46, 195, 243, 0.27)"></path><path d="M1448 400 a8 8 0 1 0 16 0 a8 8 0 1 0 -16 0zM1512 400 a8 8 0 1 0 16 0 a8 8 0 1 0 -16 0z" fill="rgba(46, 195, 243, 0.27)"></path><path d="M1424 944L1424 912L1360 848" stroke-width="5.33" stroke="rgba(46, 195, 243, 0.27)"></path><path d="M1416 944 a8 8 0 1 0 16 0 a8 8 0 1 0 -16 0zM1352 848 a8 8 0 1 0 16 0 a8 8 0 1 0 -16 0z" fill="rgba(46, 195, 243, 0.27)"></path><path d="M496 1104L560 1104" stroke-width="5.33" stroke="rgba(46, 195, 243, 0.27)"></path><path d="M488 1104 a8 8 0 1 0 16 0 a8 8 0 1 0 -16 0zM552 1104 a8 8 0 1 0 16 0 a8 8 0 1 0 -16 0z" fill="rgba(46, 195, 243, 0.27)"></path><path d="M48 1072L80 1040L80 944" stroke-width="5.33" stroke="rgba(46, 195, 243, 0.27)"></path><path d="M40 1072 a8 8 0 1 0 16 0 a8 8 0 1 0 -16 0zM72 944 a8 8 0 1 0 16 0 a8 8 0 1 0 -16 0z" fill="rgba(46, 195, 243, 0.27)"></path><path d="M656 1264L720 1264L752 1232L752 1200" stroke-width="5.33" stroke="rgba(46, 195, 243, 0.27)"></path><path d="M648 1264 a8 8 0 1 0 16 0 a8 8 0 1 0 -16 0zM744 1200 a8 8 0 1 0 16 0 a8 8 0 1 0 -16 0z" fill="rgba(46, 195, 243, 0.27)"></path><path d="M432 240L432 208L464 176L496 176" stroke-width="5.33" stroke="rgba(46, 195, 243, 0.27)"></path><path d="M424 240 a8 8 0 1 0 16 0 a8 8 0 1 0 -16 0zM488 176 a8 8 0 1 0 16 0 a8 8 0 1 0 -16 0z" fill="rgba(46, 195, 243, 0.27)"></path><path d="M1168 880L1168 848L1136 816L1136 784" stroke-width="5.33" stroke="rgba(46, 195, 243, 0.27)"></path><path d="M1160 880 a8 8 0 1 0 16 0 a8 8 0 1 0 -16 0zM1128 784 a8 8 0 1 0 16 0 a8 8 0 1 0 -16 0z" fill="rgba(46, 195, 243, 0.27)"></path><path d="M1136 880L1104 848L1104 784" stroke-width="5.33" stroke="rgba(46, 195, 243, 0.27)"></path><path d="M1128 880 a8 8 0 1 0 16 0 a8 8 0 1 0 -16 0zM1096 784 a8 8 0 1 0 16 0 a8 8 0 1 0 -16 0z" fill="rgba(46, 195, 243, 0.27)"></path><path d="M848 1136L912 1136" stroke-width="5.33" stroke="rgba(46, 195, 243, 0.27)"></path><path d="M840 1136 a8 8 0 1 0 16 0 a8 8 0 1 0 -16 0zM904 1136 a8 8 0 1 0 16 0 a8 8 0 1 0 -16 0z" fill="rgba(46, 195, 243, 0.27)"></path><path d="M624 1200L720 1200" stroke-width="5.33" stroke="rgba(46, 195, 243, 0.27)"></path><path d="M616 1200 a8 8 0 1 0 16 0 a8 8 0 1 0 -16 0zM712 1200 a8 8 0 1 0 16 0 a8 8 0 1 0 -16 0z" fill="rgba(46, 195, 243, 0.27)"></path><path d="M1584 1072L1488 1072" stroke-width="5.33" stroke="rgba(46, 195, 243, 0.27)"></path><path d="M1576 1072 a8 8 0 1 0 16 0 a8 8 0 1 0 -16 0zM1480 1072 a8 8 0 1 0 16 0 a8 8 0 1 0 -16 0z" fill="rgba(46, 195, 243, 0.27)"></path><path d="M784 752L784 816" stroke-width="5.33" stroke="rgba(46, 195, 243, 0.27)"></path><path d="M776 752 a8 8 0 1 0 16 0 a8 8 0 1 0 -16 0zM776 816 a8 8 0 1 0 16 0 a8 8 0 1 0 -16 0z" fill="rgba(46, 195, 243, 0.27)"></path><path d="M16 976L16 1040" stroke-width="5.33" stroke="rgba(46, 195, 243, 0.27)"></path><path d="M8 976 a8 8 0 1 0 16 0 a8 8 0 1 0 -16 0zM8 1040 a8 8 0 1 0 16 0 a8 8 0 1 0 -16 0z" fill="rgba(46, 195, 243, 0.27)"></path><path d="M912 400L912 432L880 464" stroke-width="5.33" stroke="rgba(46, 195, 243, 0.27)"></path><path d="M904 400 a8 8 0 1 0 16 0 a8 8 0 1 0 -16 0zM872 464 a8 8 0 1 0 16 0 a8 8 0 1 0 -16 0z" fill="rgba(46, 195, 243, 0.27)"></path><path d="M752 112L752 176" stroke-width="5.33" stroke="rgba(46, 195, 243, 0.27)"></path><path d="M744 112 a8 8 0 1 0 16 0 a8 8 0 1 0 -16 0zM744 176 a8 8 0 1 0 16 0 a8 8 0 1 0 -16 0z" fill="rgba(46, 195, 243, 0.27)"></path><path d="M368 912L368 848" stroke-width="5.33" stroke="rgba(46, 195, 243, 0.27)"></path><path d="M360 912 a8 8 0 1 0 16 0 a8 8 0 1 0 -16 0zM360 848 a8 8 0 1 0 16 0 a8 8 0 1 0 -16 0z" fill="rgba(46, 195, 243, 0.27)"></path><path d="M1008 560L1040 560L1072 592" stroke-width="5.33" stroke="rgba(46, 195, 243, 0.27)"></path><path d="M1000 560 a8 8 0 1 0 16 0 a8 8 0 1 0 -16 0zM1064 592 a8 8 0 1 0 16 0 a8 8 0 1 0 -16 0z" fill="rgba(46, 195, 243, 0.27)"></path><path d="M272 944L272 1040" stroke-width="5.33" stroke="rgba(46, 195, 243, 0.27)"></path><path d="M264 944 a8 8 0 1 0 16 0 a8 8 0 1 0 -16 0zM264 1040 a8 8 0 1 0 16 0 a8 8 0 1 0 -16 0z" fill="rgba(46, 195, 243, 0.27)"></path><path d="M112 1232L112 1136" stroke-width="5.33" stroke="rgba(46, 195, 243, 0.27)"></path><path d="M104 1232 a8 8 0 1 0 16 0 a8 8 0 1 0 -16 0zM104 1136 a8 8 0 1 0 16 0 a8 8 0 1 0 -16 0z" fill="rgba(46, 195, 243, 0.27)"></path><path d="M1424 80L1360 80" stroke-width="5.33" stroke="rgba(46, 195, 243, 0.27)"></path><path d="M1416 80 a8 8 0 1 0 16 0 a8 8 0 1 0 -16 0zM1352 80 a8 8 0 1 0 16 0 a8 8 0 1 0 -16 0z" fill="rgba(46, 195, 243, 0.27)"></path><path d="M48 944L48 1008" stroke-width="5.33" stroke="rgba(46, 195, 243, 0.27)"></path><path d="M40 944 a8 8 0 1 0 16 0 a8 8 0 1 0 -16 0zM40 1008 a8 8 0 1 0 16 0 a8 8 0 1 0 -16 0z" fill="rgba(46, 195, 243, 0.27)"></path><path d="M880 1168L848 1200L848 1264" stroke-width="5.33" stroke="rgba(46, 195, 243, 0.27)"></path><path d="M872 1168 a8 8 0 1 0 16 0 a8 8 0 1 0 -16 0zM840 1264 a8 8 0 1 0 16 0 a8 8 0 1 0 -16 0z" fill="rgba(46, 195, 243, 0.27)"></path><path d="M848 1008L880 976L912 976" stroke-width="5.33" stroke="rgba(46, 195, 243, 0.27)"></path><path d="M840 1008 a8 8 0 1 0 16 0 a8 8 0 1 0 -16 0zM904 976 a8 8 0 1 0 16 0 a8 8 0 1 0 -16 0z" fill="rgba(46, 195, 243, 0.27)"></path><path d="M1008 784L1008 720" stroke-width="5.33" stroke="rgba(46, 195, 243, 0.27)"></path><path d="M1000 784 a8 8 0 1 0 16 0 a8 8 0 1 0 -16 0zM1000 720 a8 8 0 1 0 16 0 a8 8 0 1 0 -16 0z" fill="rgba(46, 195, 243, 0.27)"></path><path d="M912 144L912 208" stroke-width="5.33" stroke="rgba(46, 195, 243, 0.27)"></path><path d="M904 144 a8 8 0 1 0 16 0 a8 8 0 1 0 -16 0zM904 208 a8 8 0 1 0 16 0 a8 8 0 1 0 -16 0z" fill="rgba(46, 195, 243, 0.27)"></path><path d="M1040 848L1072 880L1104 880" stroke-width="5.33" stroke="rgba(46, 195, 243, 0.27)"></path><path d="M1032 848 a8 8 0 1 0 16 0 a8 8 0 1 0 -16 0zM1096 880 a8 8 0 1 0 16 0 a8 8 0 1 0 -16 0z" fill="rgba(46, 195, 243, 0.27)"></path><path d="M48 496L48 560" stroke-width="5.33" stroke="rgba(46, 195, 243, 0.27)"></path><path d="M40 496 a8 8 0 1 0 16 0 a8 8 0 1 0 -16 0zM40 560 a8 8 0 1 0 16 0 a8 8 0 1 0 -16 0z" fill="rgba(46, 195, 243, 0.27)"></path></g></g><defs><mask id="SvgjsMask1356"><rect width="1600" height="1400" fill="#ffffff"></rect></mask><mask id="SvgjsMask1357"><rect width="1600" height="1400" fill="white"></rect><path d="M652 304 a4 4 0 1 0 8 0 a4 4 0 1 0 -8 0zM652 16 a4 4 0 1 0 8 0 a4 4 0 1 0 -8 0z" fill="black"></path><path d="M1164 368 a4 4 0 1 0 8 0 a4 4 0 1 0 -8 0zM1484 16 a4 4 0 1 0 8 0 a4 4 0 1 0 -8 0z" fill="black"></path><path d="M108 464 a4 4 0 1 0 8 0 a4 4 0 1 0 -8 0zM300 1072 a4 4 0 1 0 8 0 a4 4 0 1 0 -8 0z" fill="black"></path><path d="M716 1072 a4 4 0 1 0 8 0 a4 4 0 1 0 -8 0zM940 464 a4 4 0 1 0 8 0 a4 4 0 1 0 -8 0z" fill="black"></path><path d="M1388 48 a4 4 0 1 0 8 0 a4 4 0 1 0 -8 0zM1580 48 a4 4 0 1 0 8 0 a4 4 0 1 0 -8 0z" fill="black"></path><path d="M236 528 a4 4 0 1 0 8 0 a4 4 0 1 0 -8 0zM620 16 a4 4 0 1 0 8 0 a4 4 0 1 0 -8 0z" fill="black"></path><path d="M620 592 a4 4 0 1 0 8 0 a4 4 0 1 0 -8 0zM332 1200 a4 4 0 1 0 8 0 a4 4 0 1 0 -8 0z" fill="black"></path><path d="M940 240 a4 4 0 1 0 8 0 a4 4 0 1 0 -8 0zM332 624 a4 4 0 1 0 8 0 a4 4 0 1 0 -8 0z" fill="black"></path><path d="M1484 688 a4 4 0 1 0 8 0 a4 4 0 1 0 -8 0zM1580 144 a4 4 0 1 0 8 0 a4 4 0 1 0 -8 0z" fill="black"></path><path d="M12 1200 a4 4 0 1 0 8 0 a4 4 0 1 0 -8 0zM12 1392 a4 4 0 1 0 8 0 a4 4 0 1 0 -8 0z" fill="black"></path><path d="M684 848 a4 4 0 1 0 8 0 a4 4 0 1 0 -8 0zM364 1328 a4 4 0 1 0 8 0 a4 4 0 1 0 -8 0z" fill="black"></path><path d="M1580 1040 a4 4 0 1 0 8 0 a4 4 0 1 0 -8 0zM972 432 a4 4 0 1 0 8 0 a4 4 0 1 0 -8 0z" fill="black"></path><path d="M1260 1296 a4 4 0 1 0 8 0 a4 4 0 1 0 -8 0zM1132 688 a4 4 0 1 0 8 0 a4 4 0 1 0 -8 0z" fill="black"></path><path d="M876 1040 a4 4 0 1 0 8 0 a4 4 0 1 0 -8 0zM1292 1392 a4 4 0 1 0 8 0 a4 4 0 1 0 -8 0z" fill="black"></path><path d="M524 560 a4 4 0 1 0 8 0 a4 4 0 1 0 -8 0zM268 528 a4 4 0 1 0 8 0 a4 4 0 1 0 -8 0z" fill="black"></path><path d="M1292 560 a4 4 0 1 0 8 0 a4 4 0 1 0 -8 0zM1580 720 a4 4 0 1 0 8 0 a4 4 0 1 0 -8 0z" fill="black"></path><path d="M492 400 a4 4 0 1 0 8 0 a4 4 0 1 0 -8 0zM524 592 a4 4 0 1 0 8 0 a4 4 0 1 0 -8 0z" fill="black"></path><path d="M492 208 a4 4 0 1 0 8 0 a4 4 0 1 0 -8 0zM140 560 a4 4 0 1 0 8 0 a4 4 0 1 0 -8 0z" fill="black"></path><path d="M684 1168 a4 4 0 1 0 8 0 a4 4 0 1 0 -8 0zM76 1392 a4 4 0 1 0 8 0 a4 4 0 1 0 -8 0z" fill="black"></path><path d="M1004 1328 a4 4 0 1 0 8 0 a4 4 0 1 0 -8 0zM1580 1264 a4 4 0 1 0 8 0 a4 4 0 1 0 -8 0z" fill="black"></path><path d="M140 976 a4 4 0 1 0 8 0 a4 4 0 1 0 -8 0zM44 1392 a4 4 0 1 0 8 0 a4 4 0 1 0 -8 0z" fill="black"></path><path d="M44 432 a4 4 0 1 0 8 0 a4 4 0 1 0 -8 0zM172 976 a4 4 0 1 0 8 0 a4 4 0 1 0 -8 0z" fill="black"></path><path d="M268 16 a4 4 0 1 0 8 0 a4 4 0 1 0 -8 0zM588 16 a4 4 0 1 0 8 0 a4 4 0 1 0 -8 0z" fill="black"></path><path d="M1100 1200 a4 4 0 1 0 8 0 a4 4 0 1 0 -8 0zM1004 592 a4 4 0 1 0 8 0 a4 4 0 1 0 -8 0z" fill="black"></path><path d="M716 592 a4 4 0 1 0 8 0 a4 4 0 1 0 -8 0zM1196 16 a4 4 0 1 0 8 0 a4 4 0 1 0 -8 0z" fill="black"></path><path d="M1484 528 a4 4 0 1 0 8 0 a4 4 0 1 0 -8 0zM1260 112 a4 4 0 1 0 8 0 a4 4 0 1 0 -8 0z" fill="black"></path><path d="M1004 176 a4 4 0 1 0 8 0 a4 4 0 1 0 -8 0zM1164 16 a4 4 0 1 0 8 0 a4 4 0 1 0 -8 0z" fill="black"></path><path d="M684 784 a4 4 0 1 0 8 0 a4 4 0 1 0 -8 0zM588 816 a4 4 0 1 0 8 0 a4 4 0 1 0 -8 0z" fill="black"></path><path d="M204 848 a4 4 0 1 0 8 0 a4 4 0 1 0 -8 0zM44 880 a4 4 0 1 0 8 0 a4 4 0 1 0 -8 0z" fill="black"></path><path d="M108 112 a4 4 0 1 0 8 0 a4 4 0 1 0 -8 0zM140 528 a4 4 0 1 0 8 0 a4 4 0 1 0 -8 0z" fill="black"></path><path d="M396 112 a4 4 0 1 0 8 0 a4 4 0 1 0 -8 0zM172 496 a4 4 0 1 0 8 0 a4 4 0 1 0 -8 0z" fill="black"></path><path d="M1292 976 a4 4 0 1 0 8 0 a4 4 0 1 0 -8 0zM1196 688 a4 4 0 1 0 8 0 a4 4 0 1 0 -8 0z" fill="black"></path><path d="M1580 752 a4 4 0 1 0 8 0 a4 4 0 1 0 -8 0zM972 400 a4 4 0 1 0 8 0 a4 4 0 1 0 -8 0z" fill="black"></path><path d="M396 816 a4 4 0 1 0 8 0 a4 4 0 1 0 -8 0zM460 880 a4 4 0 1 0 8 0 a4 4 0 1 0 -8 0z" fill="black"></path><path d="M300 1360 a4 4 0 1 0 8 0 a4 4 0 1 0 -8 0zM76 1360 a4 4 0 1 0 8 0 a4 4 0 1 0 -8 0z" fill="black"></path><path d="M812 304 a4 4 0 1 0 8 0 a4 4 0 1 0 -8 0zM652 208 a4 4 0 1 0 8 0 a4 4 0 1 0 -8 0z" fill="black"></path><path d="M1388 1072 a4 4 0 1 0 8 0 a4 4 0 1 0 -8 0zM1292 1328 a4 4 0 1 0 8 0 a4 4 0 1 0 -8 0z" fill="black"></path><path d="M1548 368 a4 4 0 1 0 8 0 a4 4 0 1 0 -8 0zM1420 560 a4 4 0 1 0 8 0 a4 4 0 1 0 -8 0z" fill="black"></path><path d="M588 688 a4 4 0 1 0 8 0 a4 4 0 1 0 -8 0zM204 528 a4 4 0 1 0 8 0 a4 4 0 1 0 -8 0z" fill="black"></path><path d="M1068 1008 a4 4 0 1 0 8 0 a4 4 0 1 0 -8 0zM1004 1296 a4 4 0 1 0 8 0 a4 4 0 1 0 -8 0z" fill="black"></path><path d="M652 336 a4 4 0 1 0 8 0 a4 4 0 1 0 -8 0zM588 208 a4 4 0 1 0 8 0 a4 4 0 1 0 -8 0z" fill="black"></path><path d="M332 560 a4 4 0 1 0 8 0 a4 4 0 1 0 -8 0zM460 336 a4 4 0 1 0 8 0 a4 4 0 1 0 -8 0z" fill="black"></path><path d="M748 592 a4 4 0 1 0 8 0 a4 4 0 1 0 -8 0zM1100 144 a4 4 0 1 0 8 0 a4 4 0 1 0 -8 0z" fill="black"></path><path d="M1452 272 a4 4 0 1 0 8 0 a4 4 0 1 0 -8 0zM1548 304 a4 4 0 1 0 8 0 a4 4 0 1 0 -8 0z" fill="black"></path><path d="M236 48 a4 4 0 1 0 8 0 a4 4 0 1 0 -8 0zM12 16 a4 4 0 1 0 8 0 a4 4 0 1 0 -8 0z" fill="black"></path><path d="M716 112 a4 4 0 1 0 8 0 a4 4 0 1 0 -8 0zM684 176 a4 4 0 1 0 8 0 a4 4 0 1 0 -8 0z" fill="black"></path><path d="M652 624 a4 4 0 1 0 8 0 a4 4 0 1 0 -8 0zM620 784 a4 4 0 1 0 8 0 a4 4 0 1 0 -8 0z" fill="black"></path><path d="M44 848 a4 4 0 1 0 8 0 a4 4 0 1 0 -8 0zM268 784 a4 4 0 1 0 8 0 a4 4 0 1 0 -8 0z" fill="black"></path><path d="M492 656 a4 4 0 1 0 8 0 a4 4 0 1 0 -8 0zM204 560 a4 4 0 1 0 8 0 a4 4 0 1 0 -8 0z" fill="black"></path><path d="M780 880 a4 4 0 1 0 8 0 a4 4 0 1 0 -8 0zM844 624 a4 4 0 1 0 8 0 a4 4 0 1 0 -8 0z" fill="black"></path><path d="M492 1008 a4 4 0 1 0 8 0 a4 4 0 1 0 -8 0zM428 1296 a4 4 0 1 0 8 0 a4 4 0 1 0 -8 0z" fill="black"></path><path d="M1452 176 a4 4 0 1 0 8 0 a4 4 0 1 0 -8 0zM1356 560 a4 4 0 1 0 8 0 a4 4 0 1 0 -8 0z" fill="black"></path><path d="M1420 240 a4 4 0 1 0 8 0 a4 4 0 1 0 -8 0zM1452 464 a4 4 0 1 0 8 0 a4 4 0 1 0 -8 0z" fill="black"></path><path d="M876 80 a4 4 0 1 0 8 0 a4 4 0 1 0 -8 0zM1068 80 a4 4 0 1 0 8 0 a4 4 0 1 0 -8 0z" fill="black"></path><path d="M108 1072 a4 4 0 1 0 8 0 a4 4 0 1 0 -8 0zM12 1168 a4 4 0 1 0 8 0 a4 4 0 1 0 -8 0z" fill="black"></path><path d="M76 1200 a4 4 0 1 0 8 0 a4 4 0 1 0 -8 0zM44 1296 a4 4 0 1 0 8 0 a4 4 0 1 0 -8 0z" fill="black"></path><path d="M1292 112 a4 4 0 1 0 8 0 a4 4 0 1 0 -8 0zM1388 208 a4 4 0 1 0 8 0 a4 4 0 1 0 -8 0z" fill="black"></path><path d="M1580 1104 a4 4 0 1 0 8 0 a4 4 0 1 0 -8 0zM1516 1232 a4 4 0 1 0 8 0 a4 4 0 1 0 -8 0z" fill="black"></path><path d="M1132 976 a4 4 0 1 0 8 0 a4 4 0 1 0 -8 0zM1196 976 a4 4 0 1 0 8 0 a4 4 0 1 0 -8 0z" fill="black"></path><path d="M684 1328 a4 4 0 1 0 8 0 a4 4 0 1 0 -8 0zM1004 1392 a4 4 0 1 0 8 0 a4 4 0 1 0 -8 0z" fill="black"></path><path d="M716 144 a4 4 0 1 0 8 0 a4 4 0 1 0 -8 0zM812 176 a4 4 0 1 0 8 0 a4 4 0 1 0 -8 0z" fill="black"></path><path d="M1292 48 a4 4 0 1 0 8 0 a4 4 0 1 0 -8 0zM1580 80 a4 4 0 1 0 8 0 a4 4 0 1 0 -8 0z" fill="black"></path><path d="M748 624 a4 4 0 1 0 8 0 a4 4 0 1 0 -8 0zM684 656 a4 4 0 1 0 8 0 a4 4 0 1 0 -8 0z" fill="black"></path><path d="M812 1072 a4 4 0 1 0 8 0 a4 4 0 1 0 -8 0zM428 1136 a4 4 0 1 0 8 0 a4 4 0 1 0 -8 0z" fill="black"></path><path d="M556 528 a4 4 0 1 0 8 0 a4 4 0 1 0 -8 0zM428 400 a4 4 0 1 0 8 0 a4 4 0 1 0 -8 0z" fill="black"></path><path d="M1356 528 a4 4 0 1 0 8 0 a4 4 0 1 0 -8 0zM1292 144 a4 4 0 1 0 8 0 a4 4 0 1 0 -8 0z" fill="black"></path><path d="M172 1040 a4 4 0 1 0 8 0 a4 4 0 1 0 -8 0zM204 816 a4 4 0 1 0 8 0 a4 4 0 1 0 -8 0z" fill="black"></path><path d="M908 816 a4 4 0 1 0 8 0 a4 4 0 1 0 -8 0zM748 688 a4 4 0 1 0 8 0 a4 4 0 1 0 -8 0z" fill="black"></path><path d="M812 496 a4 4 0 1 0 8 0 a4 4 0 1 0 -8 0zM1068 176 a4 4 0 1 0 8 0 a4 4 0 1 0 -8 0z" fill="black"></path><path d="M236 1328 a4 4 0 1 0 8 0 a4 4 0 1 0 -8 0zM364 1360 a4 4 0 1 0 8 0 a4 4 0 1 0 -8 0z" fill="black"></path><path d="M652 240 a4 4 0 1 0 8 0 a4 4 0 1 0 -8 0zM812 336 a4 4 0 1 0 8 0 a4 4 0 1 0 -8 0z" fill="black"></path><path d="M1356 1200 a4 4 0 1 0 8 0 a4 4 0 1 0 -8 0zM1580 1232 a4 4 0 1 0 8 0 a4 4 0 1 0 -8 0z" fill="black"></path><path d="M108 144 a4 4 0 1 0 8 0 a4 4 0 1 0 -8 0zM12 80 a4 4 0 1 0 8 0 a4 4 0 1 0 -8 0z" fill="black"></path><path d="M1100 368 a4 4 0 1 0 8 0 a4 4 0 1 0 -8 0zM1036 432 a4 4 0 1 0 8 0 a4 4 0 1 0 -8 0z" fill="black"></path><path d="M12 432 a4 4 0 1 0 8 0 a4 4 0 1 0 -8 0zM236 336 a4 4 0 1 0 8 0 a4 4 0 1 0 -8 0z" fill="black"></path><path d="M748 1360 a4 4 0 1 0 8 0 a4 4 0 1 0 -8 0zM428 1392 a4 4 0 1 0 8 0 a4 4 0 1 0 -8 0z" fill="black"></path><path d="M1068 1296 a4 4 0 1 0 8 0 a4 4 0 1 0 -8 0zM1228 1104 a4 4 0 1 0 8 0 a4 4 0 1 0 -8 0z" fill="black"></path><path d="M1132 656 a4 4 0 1 0 8 0 a4 4 0 1 0 -8 0zM972 464 a4 4 0 1 0 8 0 a4 4 0 1 0 -8 0z" fill="black"></path><path d="M1228 528 a4 4 0 1 0 8 0 a4 4 0 1 0 -8 0zM1260 48 a4 4 0 1 0 8 0 a4 4 0 1 0 -8 0z" fill="black"></path><path d="M652 1296 a4 4 0 1 0 8 0 a4 4 0 1 0 -8 0zM428 1360 a4 4 0 1 0 8 0 a4 4 0 1 0 -8 0z" fill="black"></path><path d="M780 48 a4 4 0 1 0 8 0 a4 4 0 1 0 -8 0zM908 16 a4 4 0 1 0 8 0 a4 4 0 1 0 -8 0z" fill="black"></path><path d="M748 1136 a4 4 0 1 0 8 0 a4 4 0 1 0 -8 0zM684 1136 a4 4 0 1 0 8 0 a4 4 0 1 0 -8 0z" fill="black"></path><path d="M940 1232 a4 4 0 1 0 8 0 a4 4 0 1 0 -8 0zM940 1296 a4 4 0 1 0 8 0 a4 4 0 1 0 -8 0z" fill="black"></path><path d="M364 560 a4 4 0 1 0 8 0 a4 4 0 1 0 -8 0zM524 528 a4 4 0 1 0 8 0 a4 4 0 1 0 -8 0z" fill="black"></path><path d="M940 816 a4 4 0 1 0 8 0 a4 4 0 1 0 -8 0zM940 688 a4 4 0 1 0 8 0 a4 4 0 1 0 -8 0z" fill="black"></path><path d="M236 208 a4 4 0 1 0 8 0 a4 4 0 1 0 -8 0zM588 48 a4 4 0 1 0 8 0 a4 4 0 1 0 -8 0z" fill="black"></path><path d="M1164 816 a4 4 0 1 0 8 0 a4 4 0 1 0 -8 0zM1132 752 a4 4 0 1 0 8 0 a4 4 0 1 0 -8 0z" fill="black"></path><path d="M588 1072 a4 4 0 1 0 8 0 a4 4 0 1 0 -8 0zM684 1072 a4 4 0 1 0 8 0 a4 4 0 1 0 -8 0z" fill="black"></path><path d="M812 816 a4 4 0 1 0 8 0 a4 4 0 1 0 -8 0zM748 720 a4 4 0 1 0 8 0 a4 4 0 1 0 -8 0z" fill="black"></path><path d="M364 784 a4 4 0 1 0 8 0 a4 4 0 1 0 -8 0zM332 1008 a4 4 0 1 0 8 0 a4 4 0 1 0 -8 0z" fill="black"></path><path d="M972 1008 a4 4 0 1 0 8 0 a4 4 0 1 0 -8 0zM972 1104 a4 4 0 1 0 8 0 a4 4 0 1 0 -8 0z" fill="black"></path><path d="M300 1232 a4 4 0 1 0 8 0 a4 4 0 1 0 -8 0zM332 1296 a4 4 0 1 0 8 0 a4 4 0 1 0 -8 0z" fill="black"></path><path d="M76 304 a4 4 0 1 0 8 0 a4 4 0 1 0 -8 0zM236 304 a4 4 0 1 0 8 0 a4 4 0 1 0 -8 0z" fill="black"></path><path d="M684 1040 a4 4 0 1 0 8 0 a4 4 0 1 0 -8 0zM428 1040 a4 4 0 1 0 8 0 a4 4 0 1 0 -8 0z" fill="black"></path><path d="M492 1232 a4 4 0 1 0 8 0 a4 4 0 1 0 -8 0zM556 1168 a4 4 0 1 0 8 0 a4 4 0 1 0 -8 0z" fill="black"></path><path d="M524 784 a4 4 0 1 0 8 0 a4 4 0 1 0 -8 0zM524 720 a4 4 0 1 0 8 0 a4 4 0 1 0 -8 0z" fill="black"></path><path d="M268 1200 a4 4 0 1 0 8 0 a4 4 0 1 0 -8 0zM204 1008 a4 4 0 1 0 8 0 a4 4 0 1 0 -8 0z" fill="black"></path><path d="M1036 400 a4 4 0 1 0 8 0 a4 4 0 1 0 -8 0zM1100 272 a4 4 0 1 0 8 0 a4 4 0 1 0 -8 0z" fill="black"></path><path d="M1548 1392 a4 4 0 1 0 8 0 a4 4 0 1 0 -8 0zM1580 1296 a4 4 0 1 0 8 0 a4 4 0 1 0 -8 0z" fill="black"></path><path d="M1580 1168 a4 4 0 1 0 8 0 a4 4 0 1 0 -8 0zM1484 1136 a4 4 0 1 0 8 0 a4 4 0 1 0 -8 0z" fill="black"></path><path d="M1196 304 a4 4 0 1 0 8 0 a4 4 0 1 0 -8 0zM1228 80 a4 4 0 1 0 8 0 a4 4 0 1 0 -8 0z" fill="black"></path><path d="M236 1136 a4 4 0 1 0 8 0 a4 4 0 1 0 -8 0zM172 1072 a4 4 0 1 0 8 0 a4 4 0 1 0 -8 0z" fill="black"></path><path d="M1228 1200 a4 4 0 1 0 8 0 a4 4 0 1 0 -8 0zM1036 1328 a4 4 0 1 0 8 0 a4 4 0 1 0 -8 0z" fill="black"></path><path d="M620 1264 a4 4 0 1 0 8 0 a4 4 0 1 0 -8 0zM492 1296 a4 4 0 1 0 8 0 a4 4 0 1 0 -8 0z" fill="black"></path><path d="M1388 720 a4 4 0 1 0 8 0 a4 4 0 1 0 -8 0zM1196 368 a4 4 0 1 0 8 0 a4 4 0 1 0 -8 0z" fill="black"></path><path d="M1164 528 a4 4 0 1 0 8 0 a4 4 0 1 0 -8 0zM1356 720 a4 4 0 1 0 8 0 a4 4 0 1 0 -8 0z" fill="black"></path><path d="M1324 1296 a4 4 0 1 0 8 0 a4 4 0 1 0 -8 0zM1420 1360 a4 4 0 1 0 8 0 a4 4 0 1 0 -8 0z" fill="black"></path><path d="M332 80 a4 4 0 1 0 8 0 a4 4 0 1 0 -8 0zM300 336 a4 4 0 1 0 8 0 a4 4 0 1 0 -8 0z" fill="black"></path><path d="M780 944 a4 4 0 1 0 8 0 a4 4 0 1 0 -8 0zM1196 944 a4 4 0 1 0 8 0 a4 4 0 1 0 -8 0z" fill="black"></path><path d="M1356 496 a4 4 0 1 0 8 0 a4 4 0 1 0 -8 0zM1356 432 a4 4 0 1 0 8 0 a4 4 0 1 0 -8 0z" fill="black"></path><path d="M396 752 a4 4 0 1 0 8 0 a4 4 0 1 0 -8 0zM300 720 a4 4 0 1 0 8 0 a4 4 0 1 0 -8 0z" fill="black"></path><path d="M748 1264 a4 4 0 1 0 8 0 a4 4 0 1 0 -8 0zM684 1296 a4 4 0 1 0 8 0 a4 4 0 1 0 -8 0z" fill="black"></path><path d="M1452 688 a4 4 0 1 0 8 0 a4 4 0 1 0 -8 0zM1548 464 a4 4 0 1 0 8 0 a4 4 0 1 0 -8 0z" fill="black"></path><path d="M940 496 a4 4 0 1 0 8 0 a4 4 0 1 0 -8 0zM844 592 a4 4 0 1 0 8 0 a4 4 0 1 0 -8 0z" fill="black"></path><path d="M812 80 a4 4 0 1 0 8 0 a4 4 0 1 0 -8 0zM684 80 a4 4 0 1 0 8 0 a4 4 0 1 0 -8 0z" fill="black"></path><path d="M908 1360 a4 4 0 1 0 8 0 a4 4 0 1 0 -8 0zM972 1392 a4 4 0 1 0 8 0 a4 4 0 1 0 -8 0z" fill="black"></path><path d="M1548 240 a4 4 0 1 0 8 0 a4 4 0 1 0 -8 0zM1548 112 a4 4 0 1 0 8 0 a4 4 0 1 0 -8 0z" fill="black"></path><path d="M492 80 a4 4 0 1 0 8 0 a4 4 0 1 0 -8 0zM588 80 a4 4 0 1 0 8 0 a4 4 0 1 0 -8 0z" fill="black"></path><path d="M300 176 a4 4 0 1 0 8 0 a4 4 0 1 0 -8 0zM236 112 a4 4 0 1 0 8 0 a4 4 0 1 0 -8 0z" fill="black"></path><path d="M1420 1296 a4 4 0 1 0 8 0 a4 4 0 1 0 -8 0zM1420 1168 a4 4 0 1 0 8 0 a4 4 0 1 0 -8 0z" fill="black"></path><path d="M460 784 a4 4 0 1 0 8 0 a4 4 0 1 0 -8 0zM460 848 a4 4 0 1 0 8 0 a4 4 0 1 0 -8 0z" fill="black"></path><path d="M1100 16 a4 4 0 1 0 8 0 a4 4 0 1 0 -8 0zM1036 16 a4 4 0 1 0 8 0 a4 4 0 1 0 -8 0z" fill="black"></path><path d="M1484 1264 a4 4 0 1 0 8 0 a4 4 0 1 0 -8 0zM1452 1168 a4 4 0 1 0 8 0 a4 4 0 1 0 -8 0z" fill="black"></path><path d="M76 176 a4 4 0 1 0 8 0 a4 4 0 1 0 -8 0zM12 400 a4 4 0 1 0 8 0 a4 4 0 1 0 -8 0z" fill="black"></path><path d="M236 1072 a4 4 0 1 0 8 0 a4 4 0 1 0 -8 0zM172 1200 a4 4 0 1 0 8 0 a4 4 0 1 0 -8 0z" fill="black"></path><path d="M172 16 a4 4 0 1 0 8 0 a4 4 0 1 0 -8 0zM76 16 a4 4 0 1 0 8 0 a4 4 0 1 0 -8 0z" fill="black"></path><path d="M1516 848 a4 4 0 1 0 8 0 a4 4 0 1 0 -8 0zM1580 976 a4 4 0 1 0 8 0 a4 4 0 1 0 -8 0z" fill="black"></path><path d="M460 1104 a4 4 0 1 0 8 0 a4 4 0 1 0 -8 0zM652 1104 a4 4 0 1 0 8 0 a4 4 0 1 0 -8 0z" fill="black"></path><path d="M1004 976 a4 4 0 1 0 8 0 a4 4 0 1 0 -8 0zM1196 1072 a4 4 0 1 0 8 0 a4 4 0 1 0 -8 0z" fill="black"></path><path d="M1484 848 a4 4 0 1 0 8 0 a4 4 0 1 0 -8 0zM1580 784 a4 4 0 1 0 8 0 a4 4 0 1 0 -8 0z" fill="black"></path><path d="M300 624 a4 4 0 1 0 8 0 a4 4 0 1 0 -8 0zM236 560 a4 4 0 1 0 8 0 a4 4 0 1 0 -8 0z" fill="black"></path><path d="M844 1392 a4 4 0 1 0 8 0 a4 4 0 1 0 -8 0zM492 1392 a4 4 0 1 0 8 0 a4 4 0 1 0 -8 0z" fill="black"></path><path d="M1036 1072 a4 4 0 1 0 8 0 a4 4 0 1 0 -8 0zM1004 1008 a4 4 0 1 0 8 0 a4 4 0 1 0 -8 0z" fill="black"></path><path d="M236 1264 a4 4 0 1 0 8 0 a4 4 0 1 0 -8 0zM172 1264 a4 4 0 1 0 8 0 a4 4 0 1 0 -8 0z" fill="black"></path><path d="M108 720 a4 4 0 1 0 8 0 a4 4 0 1 0 -8 0zM268 752 a4 4 0 1 0 8 0 a4 4 0 1 0 -8 0z" fill="black"></path><path d="M524 1008 a4 4 0 1 0 8 0 a4 4 0 1 0 -8 0zM588 880 a4 4 0 1 0 8 0 a4 4 0 1 0 -8 0z" fill="black"></path><path d="M44 1104 a4 4 0 1 0 8 0 a4 4 0 1 0 -8 0zM108 944 a4 4 0 1 0 8 0 a4 4 0 1 0 -8 0z" fill="black"></path><path d="M236 912 a4 4 0 1 0 8 0 a4 4 0 1 0 -8 0zM140 912 a4 4 0 1 0 8 0 a4 4 0 1 0 -8 0z" fill="black"></path><path d="M1420 1072 a4 4 0 1 0 8 0 a4 4 0 1 0 -8 0zM1292 1008 a4 4 0 1 0 8 0 a4 4 0 1 0 -8 0z" fill="black"></path><path d="M44 688 a4 4 0 1 0 8 0 a4 4 0 1 0 -8 0zM12 752 a4 4 0 1 0 8 0 a4 4 0 1 0 -8 0z" fill="black"></path><path d="M876 720 a4 4 0 1 0 8 0 a4 4 0 1 0 -8 0zM908 784 a4 4 0 1 0 8 0 a4 4 0 1 0 -8 0z" fill="black"></path><path d="M1516 112 a4 4 0 1 0 8 0 a4 4 0 1 0 -8 0zM1548 272 a4 4 0 1 0 8 0 a4 4 0 1 0 -8 0z" fill="black"></path><path d="M140 688 a4 4 0 1 0 8 0 a4 4 0 1 0 -8 0zM108 592 a4 4 0 1 0 8 0 a4 4 0 1 0 -8 0z" fill="black"></path><path d="M1228 1232 a4 4 0 1 0 8 0 a4 4 0 1 0 -8 0zM1100 1328 a4 4 0 1 0 8 0 a4 4 0 1 0 -8 0z" fill="black"></path><path d="M812 144 a4 4 0 1 0 8 0 a4 4 0 1 0 -8 0zM812 48 a4 4 0 1 0 8 0 a4 4 0 1 0 -8 0z" fill="black"></path><path d="M1452 1072 a4 4 0 1 0 8 0 a4 4 0 1 0 -8 0zM1516 1008 a4 4 0 1 0 8 0 a4 4 0 1 0 -8 0z" fill="black"></path><path d="M44 240 a4 4 0 1 0 8 0 a4 4 0 1 0 -8 0zM12 304 a4 4 0 1 0 8 0 a4 4 0 1 0 -8 0z" fill="black"></path><path d="M1420 816 a4 4 0 1 0 8 0 a4 4 0 1 0 -8 0zM1548 976 a4 4 0 1 0 8 0 a4 4 0 1 0 -8 0z" fill="black"></path><path d="M1388 112 a4 4 0 1 0 8 0 a4 4 0 1 0 -8 0zM1484 80 a4 4 0 1 0 8 0 a4 4 0 1 0 -8 0z" fill="black"></path><path d="M588 944 a4 4 0 1 0 8 0 a4 4 0 1 0 -8 0zM620 1008 a4 4 0 1 0 8 0 a4 4 0 1 0 -8 0z" fill="black"></path><path d="M12 496 a4 4 0 1 0 8 0 a4 4 0 1 0 -8 0zM12 560 a4 4 0 1 0 8 0 a4 4 0 1 0 -8 0z" fill="black"></path><path d="M684 400 a4 4 0 1 0 8 0 a4 4 0 1 0 -8 0zM780 368 a4 4 0 1 0 8 0 a4 4 0 1 0 -8 0z" fill="black"></path><path d="M460 560 a4 4 0 1 0 8 0 a4 4 0 1 0 -8 0zM492 560 a4 4 0 1 0 8 0 a4 4 0 1 0 -8 0z" fill="black"></path><path d="M748 816 a4 4 0 1 0 8 0 a4 4 0 1 0 -8 0zM972 816 a4 4 0 1 0 8 0 a4 4 0 1 0 -8 0z" fill="black"></path><path d="M460 1200 a4 4 0 1 0 8 0 a4 4 0 1 0 -8 0zM460 1264 a4 4 0 1 0 8 0 a4 4 0 1 0 -8 0z" fill="black"></path><path d="M12 1072 a4 4 0 1 0 8 0 a4 4 0 1 0 -8 0zM12 1136 a4 4 0 1 0 8 0 a4 4 0 1 0 -8 0z" fill="black"></path><path d="M716 400 a4 4 0 1 0 8 0 a4 4 0 1 0 -8 0zM588 432 a4 4 0 1 0 8 0 a4 4 0 1 0 -8 0z" fill="black"></path><path d="M1484 368 a4 4 0 1 0 8 0 a4 4 0 1 0 -8 0zM1452 304 a4 4 0 1 0 8 0 a4 4 0 1 0 -8 0z" fill="black"></path><path d="M396 720 a4 4 0 1 0 8 0 a4 4 0 1 0 -8 0zM524 816 a4 4 0 1 0 8 0 a4 4 0 1 0 -8 0z" fill="black"></path><path d="M588 368 a4 4 0 1 0 8 0 a4 4 0 1 0 -8 0zM556 368 a4 4 0 1 0 8 0 a4 4 0 1 0 -8 0z" fill="black"></path><path d="M812 1040 a4 4 0 1 0 8 0 a4 4 0 1 0 -8 0zM748 848 a4 4 0 1 0 8 0 a4 4 0 1 0 -8 0z" fill="black"></path><path d="M108 688 a4 4 0 1 0 8 0 a4 4 0 1 0 -8 0zM108 624 a4 4 0 1 0 8 0 a4 4 0 1 0 -8 0z" fill="black"></path><path d="M812 1168 a4 4 0 1 0 8 0 a4 4 0 1 0 -8 0zM812 1264 a4 4 0 1 0 8 0 a4 4 0 1 0 -8 0z" fill="black"></path><path d="M1388 1008 a4 4 0 1 0 8 0 a4 4 0 1 0 -8 0zM1452 944 a4 4 0 1 0 8 0 a4 4 0 1 0 -8 0z" fill="black"></path><path d="M716 336 a4 4 0 1 0 8 0 a4 4 0 1 0 -8 0zM620 432 a4 4 0 1 0 8 0 a4 4 0 1 0 -8 0z" fill="black"></path><path d="M1068 240 a4 4 0 1 0 8 0 a4 4 0 1 0 -8 0zM844 496 a4 4 0 1 0 8 0 a4 4 0 1 0 -8 0z" fill="black"></path><path d="M1580 16 a4 4 0 1 0 8 0 a4 4 0 1 0 -8 0zM1516 16 a4 4 0 1 0 8 0 a4 4 0 1 0 -8 0z" fill="black"></path><path d="M332 784 a4 4 0 1 0 8 0 a4 4 0 1 0 -8 0zM332 976 a4 4 0 1 0 8 0 a4 4 0 1 0 -8 0z" fill="black"></path><path d="M524 176 a4 4 0 1 0 8 0 a4 4 0 1 0 -8 0zM364 80 a4 4 0 1 0 8 0 a4 4 0 1 0 -8 0z" fill="black"></path><path d="M1388 368 a4 4 0 1 0 8 0 a4 4 0 1 0 -8 0zM1388 304 a4 4 0 1 0 8 0 a4 4 0 1 0 -8 0z" fill="black"></path><path d="M396 880 a4 4 0 1 0 8 0 a4 4 0 1 0 -8 0zM364 944 a4 4 0 1 0 8 0 a4 4 0 1 0 -8 0z" fill="black"></path><path d="M972 144 a4 4 0 1 0 8 0 a4 4 0 1 0 -8 0zM876 208 a4 4 0 1 0 8 0 a4 4 0 1 0 -8 0z" fill="black"></path><path d="M492 112 a4 4 0 1 0 8 0 a4 4 0 1 0 -8 0zM556 176 a4 4 0 1 0 8 0 a4 4 0 1 0 -8 0z" fill="black"></path><path d="M1100 432 a4 4 0 1 0 8 0 a4 4 0 1 0 -8 0zM1132 528 a4 4 0 1 0 8 0 a4 4 0 1 0 -8 0z" fill="black"></path><path d="M364 240 a4 4 0 1 0 8 0 a4 4 0 1 0 -8 0zM332 304 a4 4 0 1 0 8 0 a4 4 0 1 0 -8 0z" fill="black"></path><path d="M780 112 a4 4 0 1 0 8 0 a4 4 0 1 0 -8 0zM780 176 a4 4 0 1 0 8 0 a4 4 0 1 0 -8 0z" fill="black"></path><path d="M780 336 a4 4 0 1 0 8 0 a4 4 0 1 0 -8 0zM716 304 a4 4 0 1 0 8 0 a4 4 0 1 0 -8 0z" fill="black"></path><path d="M1100 1040 a4 4 0 1 0 8 0 a4 4 0 1 0 -8 0zM1164 1104 a4 4 0 1 0 8 0 a4 4 0 1 0 -8 0z" fill="black"></path><path d="M972 624 a4 4 0 1 0 8 0 a4 4 0 1 0 -8 0zM908 624 a4 4 0 1 0 8 0 a4 4 0 1 0 -8 0z" fill="black"></path><path d="M1164 432 a4 4 0 1 0 8 0 a4 4 0 1 0 -8 0zM1100 400 a4 4 0 1 0 8 0 a4 4 0 1 0 -8 0z" fill="black"></path><path d="M108 304 a4 4 0 1 0 8 0 a4 4 0 1 0 -8 0zM204 304 a4 4 0 1 0 8 0 a4 4 0 1 0 -8 0z" fill="black"></path><path d="M76 144 a4 4 0 1 0 8 0 a4 4 0 1 0 -8 0zM12 112 a4 4 0 1 0 8 0 a4 4 0 1 0 -8 0z" fill="black"></path><path d="M1196 1296 a4 4 0 1 0 8 0 a4 4 0 1 0 -8 0zM1260 1328 a4 4 0 1 0 8 0 a4 4 0 1 0 -8 0z" fill="black"></path><path d="M204 752 a4 4 0 1 0 8 0 a4 4 0 1 0 -8 0zM76 816 a4 4 0 1 0 8 0 a4 4 0 1 0 -8 0z" fill="black"></path><path d="M684 912 a4 4 0 1 0 8 0 a4 4 0 1 0 -8 0zM620 944 a4 4 0 1 0 8 0 a4 4 0 1 0 -8 0z" fill="black"></path><path d="M1548 336 a4 4 0 1 0 8 0 a4 4 0 1 0 -8 0zM1484 336 a4 4 0 1 0 8 0 a4 4 0 1 0 -8 0z" fill="black"></path><path d="M172 208 a4 4 0 1 0 8 0 a4 4 0 1 0 -8 0zM108 208 a4 4 0 1 0 8 0 a4 4 0 1 0 -8 0z" fill="black"></path><path d="M1292 272 a4 4 0 1 0 8 0 a4 4 0 1 0 -8 0zM1292 432 a4 4 0 1 0 8 0 a4 4 0 1 0 -8 0z" fill="black"></path><path d="M1324 48 a4 4 0 1 0 8 0 a4 4 0 1 0 -8 0zM1356 112 a4 4 0 1 0 8 0 a4 4 0 1 0 -8 0z" fill="black"></path><path d="M12 208 a4 4 0 1 0 8 0 a4 4 0 1 0 -8 0zM44 144 a4 4 0 1 0 8 0 a4 4 0 1 0 -8 0z" fill="black"></path><path d="M1036 912 a4 4 0 1 0 8 0 a4 4 0 1 0 -8 0zM908 912 a4 4 0 1 0 8 0 a4 4 0 1 0 -8 0z" fill="black"></path><path d="M652 1232 a4 4 0 1 0 8 0 a4 4 0 1 0 -8 0zM524 1264 a4 4 0 1 0 8 0 a4 4 0 1 0 -8 0z" fill="black"></path><path d="M652 1008 a4 4 0 1 0 8 0 a4 4 0 1 0 -8 0zM652 944 a4 4 0 1 0 8 0 a4 4 0 1 0 -8 0z" fill="black"></path><path d="M684 944 a4 4 0 1 0 8 0 a4 4 0 1 0 -8 0zM684 1008 a4 4 0 1 0 8 0 a4 4 0 1 0 -8 0z" fill="black"></path><path d="M1452 1328 a4 4 0 1 0 8 0 a4 4 0 1 0 -8 0zM1452 1264 a4 4 0 1 0 8 0 a4 4 0 1 0 -8 0z" fill="black"></path><path d="M1196 112 a4 4 0 1 0 8 0 a4 4 0 1 0 -8 0zM1196 208 a4 4 0 1 0 8 0 a4 4 0 1 0 -8 0z" fill="black"></path><path d="M1452 400 a4 4 0 1 0 8 0 a4 4 0 1 0 -8 0zM1516 400 a4 4 0 1 0 8 0 a4 4 0 1 0 -8 0z" fill="black"></path><path d="M1420 944 a4 4 0 1 0 8 0 a4 4 0 1 0 -8 0zM1356 848 a4 4 0 1 0 8 0 a4 4 0 1 0 -8 0z" fill="black"></path><path d="M492 1104 a4 4 0 1 0 8 0 a4 4 0 1 0 -8 0zM556 1104 a4 4 0 1 0 8 0 a4 4 0 1 0 -8 0z" fill="black"></path><path d="M44 1072 a4 4 0 1 0 8 0 a4 4 0 1 0 -8 0zM76 944 a4 4 0 1 0 8 0 a4 4 0 1 0 -8 0z" fill="black"></path><path d="M652 1264 a4 4 0 1 0 8 0 a4 4 0 1 0 -8 0zM748 1200 a4 4 0 1 0 8 0 a4 4 0 1 0 -8 0z" fill="black"></path><path d="M428 240 a4 4 0 1 0 8 0 a4 4 0 1 0 -8 0zM492 176 a4 4 0 1 0 8 0 a4 4 0 1 0 -8 0z" fill="black"></path><path d="M1164 880 a4 4 0 1 0 8 0 a4 4 0 1 0 -8 0zM1132 784 a4 4 0 1 0 8 0 a4 4 0 1 0 -8 0z" fill="black"></path><path d="M1132 880 a4 4 0 1 0 8 0 a4 4 0 1 0 -8 0zM1100 784 a4 4 0 1 0 8 0 a4 4 0 1 0 -8 0z" fill="black"></path><path d="M844 1136 a4 4 0 1 0 8 0 a4 4 0 1 0 -8 0zM908 1136 a4 4 0 1 0 8 0 a4 4 0 1 0 -8 0z" fill="black"></path><path d="M620 1200 a4 4 0 1 0 8 0 a4 4 0 1 0 -8 0zM716 1200 a4 4 0 1 0 8 0 a4 4 0 1 0 -8 0z" fill="black"></path><path d="M1580 1072 a4 4 0 1 0 8 0 a4 4 0 1 0 -8 0zM1484 1072 a4 4 0 1 0 8 0 a4 4 0 1 0 -8 0z" fill="black"></path><path d="M780 752 a4 4 0 1 0 8 0 a4 4 0 1 0 -8 0zM780 816 a4 4 0 1 0 8 0 a4 4 0 1 0 -8 0z" fill="black"></path><path d="M12 976 a4 4 0 1 0 8 0 a4 4 0 1 0 -8 0zM12 1040 a4 4 0 1 0 8 0 a4 4 0 1 0 -8 0z" fill="black"></path><path d="M908 400 a4 4 0 1 0 8 0 a4 4 0 1 0 -8 0zM876 464 a4 4 0 1 0 8 0 a4 4 0 1 0 -8 0z" fill="black"></path><path d="M748 112 a4 4 0 1 0 8 0 a4 4 0 1 0 -8 0zM748 176 a4 4 0 1 0 8 0 a4 4 0 1 0 -8 0z" fill="black"></path><path d="M364 912 a4 4 0 1 0 8 0 a4 4 0 1 0 -8 0zM364 848 a4 4 0 1 0 8 0 a4 4 0 1 0 -8 0z" fill="black"></path><path d="M1004 560 a4 4 0 1 0 8 0 a4 4 0 1 0 -8 0zM1068 592 a4 4 0 1 0 8 0 a4 4 0 1 0 -8 0z" fill="black"></path><path d="M268 944 a4 4 0 1 0 8 0 a4 4 0 1 0 -8 0zM268 1040 a4 4 0 1 0 8 0 a4 4 0 1 0 -8 0z" fill="black"></path><path d="M108 1232 a4 4 0 1 0 8 0 a4 4 0 1 0 -8 0zM108 1136 a4 4 0 1 0 8 0 a4 4 0 1 0 -8 0z" fill="black"></path><path d="M1420 80 a4 4 0 1 0 8 0 a4 4 0 1 0 -8 0zM1356 80 a4 4 0 1 0 8 0 a4 4 0 1 0 -8 0z" fill="black"></path><path d="M44 944 a4 4 0 1 0 8 0 a4 4 0 1 0 -8 0zM44 1008 a4 4 0 1 0 8 0 a4 4 0 1 0 -8 0z" fill="black"></path><path d="M876 1168 a4 4 0 1 0 8 0 a4 4 0 1 0 -8 0zM844 1264 a4 4 0 1 0 8 0 a4 4 0 1 0 -8 0z" fill="black"></path><path d="M844 1008 a4 4 0 1 0 8 0 a4 4 0 1 0 -8 0zM908 976 a4 4 0 1 0 8 0 a4 4 0 1 0 -8 0z" fill="black"></path><path d="M1004 784 a4 4 0 1 0 8 0 a4 4 0 1 0 -8 0zM1004 720 a4 4 0 1 0 8 0 a4 4 0 1 0 -8 0z" fill="black"></path><path d="M908 144 a4 4 0 1 0 8 0 a4 4 0 1 0 -8 0zM908 208 a4 4 0 1 0 8 0 a4 4 0 1 0 -8 0z" fill="black"></path><path d="M1036 848 a4 4 0 1 0 8 0 a4 4 0 1 0 -8 0zM1100 880 a4 4 0 1 0 8 0 a4 4 0 1 0 -8 0z" fill="black"></path><path d="M44 496 a4 4 0 1 0 8 0 a4 4 0 1 0 -8 0zM44 560 a4 4 0 1 0 8 0 a4 4 0 1 0 -8 0z" fill="black"></path></mask></defs></svg>